<?xml version="1.0" encoding="utf-8"?>
<!-- Generator: Adobe Illustrator 23.1.1, SVG Export Plug-In . SVG Version: 6.00 Build 0)  -->
<svg version="1.1" xmlns="http://www.w3.org/2000/svg" xmlns:xlink="http://www.w3.org/1999/xlink" x="0px" y="0px"
	 viewBox="0 0 509 357" style="enable-background:new 0 0 509 357;" xml:space="preserve">
<style type="text/css">
	.st0{fill:#B8B8B8;}
	.st1{fill:url(#SVGID_1_);}
	.st2{fill:#FFFFFF;}
	.st3{fill:url(#SVGID_2_);}
	.st4{fill:url(#SVGID_3_);}
	.st5{fill:url(#SVGID_4_);}
	.st6{fill:url(#SVGID_5_);}
	.st7{fill:url(#SVGID_6_);}
	.st8{fill:#2DBEE7;}
	.st9{display:none;}
	.st10{display:inline;}
	.st11{display:inline;fill:#B8B8B8;}
</style>
<g id="Camada_1">
	<g>
		<g>
			<linearGradient id="SVGID_1_" gradientUnits="userSpaceOnUse" x1="0" y1="178.5" x2="509" y2="178.5">
				<stop  offset="0" style="stop-color:#2DBEE8"/>
				<stop  offset="1" style="stop-color:#2CD5BE"/>
			</linearGradient>
			<rect class="st1" width="509" height="357"/>
		</g>
		<g>
			<path class="st2" d="M336.71,159.33c0,28.53-23.39,51.75-52.15,51.75h-18.73c-1.88,0-3.4,1.52-3.4,3.4v31.39
				c0,1.88-1.52,3.4-3.4,3.4h-6.18c-1.88,0-3.4-1.52-3.4-3.4v-44.36c0-1.88,1.52-3.4,3.4-3.4h31.71c21.6,0,39.17-17.4,39.17-38.78
				c0-21.38-17.57-38.79-39.17-38.79h-44.69c-1.88,0-3.4,1.52-3.4,3.4v121.92c0,1.88-1.52,3.4-3.4,3.4h-6.18
				c-1.88,0-3.4-1.52-3.4-3.4v-134.9c0-1.88,1.52-3.4,3.4-3.4h57.67C313.32,107.57,336.71,130.79,336.71,159.33z M284.56,185.12
				h-31.9c-1.78,0-3.22-1.44-3.22-3.22v-45.15c0-1.78,1.44-3.22,3.22-3.22h31.9c14.44,0,26.19,11.57,26.19,25.8
				C310.75,173.55,299,185.12,284.56,185.12z M262.43,168.93c0,1.78,1.44,3.22,3.22,3.22h18.91c7.28,0,13.21-5.75,13.21-12.82
				c0-7.07-5.93-12.82-13.21-12.82h-18.91c-1.78,0-3.22,1.44-3.22,3.22V168.93z M136.31,134.22L136.31,134.22
				c0.54,0,1.29,0.17,1.79,1.53l24.6,60.62c1.09,2.68-0.89,5.61-3.78,5.61h-45.23c-2.9,0-4.87-2.93-3.78-5.61l24.69-60.84
				C134.93,134.72,135.44,134.22,136.31,134.22z M147.95,191.74l-11.64-28.69l-11.65,28.69H147.95z M181.24,242.05l-11.01-27.14
				h-67.85l-13.85,34.13h13.96l8.6-21.19h50.42l7.04,17.34c1.22,3.78,3.21,3.85,5.72,3.85h2.26
				C180.14,249.05,183.61,247.52,181.24,242.05z M209.74,243.7l-55.06-135.9h-36.75L60.6,249.05h13.96l52.18-128.56h19.12
				l52.18,128.56h8.19C208.99,249.05,210.78,246.26,209.74,243.7z M349.96,162.94c0.65,3.13,1.85,6.06,3.38,8.86
				c1.57,2.89,3.49,5.53,5.75,7.9c1.01,1.06,2.15,2,3.25,2.96c2.2,1.91,4.59,3.57,7.19,4.89c2.45,1.25,4.93,2.44,7.5,3.42
				c4.1,1.56,8.25,2.99,12.42,4.36c4.17,1.38,8.42,2.55,12.23,4.84c2.1,1.26,4.05,2.63,3.71,5.61c-0.25,2.27-1.27,3.85-3.23,4.69
				c-3.12,1.34-6.4,1.45-9.73,1.11c-2.95-0.3-5.71-1.23-8.35-2.5c-1.66-0.79-3.25-1.68-4.75-2.7l-9.29,9.29
				c3.7,2.81,7.73,5.02,12.09,6.67c2.78,1.05,5.63,1.78,8.56,2.11c2.33,0.27,4.71,0.32,7.05,0.16c3.77-0.26,7.45-1.03,10.86-2.81
				c3.04-1.59,5.45-3.85,7.2-6.79c1.32-2.21,2.08-4.61,2.36-7.18c0.34-3.15,0.24-6.24-0.94-9.23c-0.64-1.63-1.55-3.09-2.67-4.43
				c-3.4-4.07-7.91-6.5-12.75-8.3c-4.32-1.61-8.76-2.93-13.1-4.48c-3.46-1.24-6.87-2.62-10.3-3.96c-2.8-1.1-5.32-2.71-7.61-4.61
				c-4.24-3.53-7.13-7.92-8.32-13.4c-0.7-3.24-0.74-6.52-0.56-9.77c0.31-5.58,2.22-10.6,5.72-15.02c2.57-3.24,5.7-5.78,9.27-7.83
				c3.53-2.03,7.31-3.44,11.27-4.33c2.58-0.58,5.21-0.93,7.83-1.28c1.63-0.22,3.28-0.27,4.92-0.32c1.74-0.05,3.51-0.19,5.23,0.03
				c3.23,0.41,6.45,0.93,9.63,1.62c4.64,1.01,9.04,2.76,13.21,5.04c1.08,0.59,2.14,1.24,3.25,1.9l9.31-9.31
				c-0.84-0.6-1.68-1.19-2.55-1.75c-4.05-2.64-8.37-4.73-12.91-6.33c-4.63-1.64-9.35-2.96-14.25-3.51
				c-2.98-0.33-5.97-0.63-8.96-0.75c-1.89-0.08-3.81,0.12-5.7,0.29c-2.29,0.2-4.6,0.37-6.85,0.79c-3.14,0.59-6.26,1.3-9.34,2.14
				c-3.92,1.07-7.58,2.81-11.1,4.83c-2.95,1.7-5.71,3.68-8.17,6.04c-1.28,1.23-2.44,2.58-3.62,3.92c-1.99,2.24-3.64,4.73-4.93,7.42
				c-1.02,2.12-1.88,4.33-2.61,6.57c-1.03,3.17-1.48,6.47-1.59,9.79c-0.08,2.48-0.02,4.97,0.16,7.45
				C349.26,159.02,349.56,161,349.96,162.94z M448.06,199.67c-0.18-1.99-0.32-3.98-0.63-5.95c-0.71-4.4-2.36-8.45-4.84-12.16
				c-2.29-3.43-4.96-6.51-8.18-9.14c-2.7-2.2-5.6-4.08-8.65-5.73c-4.02-2.18-8.33-3.64-12.62-5.15c-4.31-1.51-8.64-2.97-12.96-4.46
				c-2.46-0.84-4.88-1.76-7.06-3.2c-1.51-0.99-2.03-2.36-1.6-4.13c0.39-1.62,1.55-2.59,2.89-3.3c2.5-1.31,5.28-1.4,8-1.38
				c2.36,0.01,4.68,0.6,6.9,1.5c1.36,0.55,2.7,1.15,3.95,1.87l9.32-9.32c-4.24-3.09-8.92-5.22-14.08-6.24
				c-1.62-0.32-3.28-0.49-4.93-0.62c-4.3-0.35-8.53,0.15-12.6,1.57c-3.5,1.21-6.4,3.34-8.79,6.21c-1.88,2.26-3.05,4.83-3.44,7.69
				c-0.51,3.73-0.3,7.41,1.52,10.85c1.55,2.94,3.88,5.1,6.69,6.78c4.34,2.6,9.14,4.05,13.86,5.69c5.17,1.8,10.37,3.55,15.48,5.51
				c3.41,1.31,6.49,3.26,9.39,5.52c3.02,2.36,5.43,5.24,7.19,8.59c0.93,1.77,1.48,3.79,1.89,5.76c0.39,1.87,0.51,3.83,0.49,5.74
				c-0.06,4.46-0.63,8.86-2.33,13.03c-1.13,2.77-2.68,5.31-4.59,7.63c-3.39,4.12-7.65,7.08-12.5,9.22
				c-3.38,1.49-6.91,2.53-10.57,3.08c-2.07,0.31-4.15,0.63-6.23,0.76c-2.5,0.16-5.03,0.27-7.53,0.15c-3.8-0.19-7.59-0.61-11.27-1.63
				c-3.3-0.91-6.6-1.86-9.79-3.06c-3.72-1.4-7.21-3.29-10.43-5.65l-9.3,9.3c3.93,3.13,8.31,5.6,12.93,7.59
				c4.36,1.89,8.86,3.34,13.5,4.43c4.57,1.07,9.19,1.75,13.85,1.94c4.04,0.17,8.11,0.22,12.14-0.42c2.61-0.42,5.26-0.69,7.83-1.3
				c4.91-1.15,9.64-2.82,14.08-5.27c4.86-2.67,9.13-6.04,12.76-10.24c2.01-2.33,3.71-4.86,5.17-7.55c1.77-3.25,2.99-6.71,3.87-10.32
				c0.88-3.66,1.13-7.37,1.33-11.1C448.27,201.73,448.16,200.69,448.06,199.67z"/>
			<g>
				<g>
					<path class="st2" d="M172.81,52.77h-3.5c-0.86,0-1.99,0.57-2.49,1.27l-2.32,3.22c-0.51,0.7-0.21,1.27,0.65,1.27h1.82
						c0.86,0,2.08-0.5,2.69-1.1l3.61-3.56C173.88,53.26,173.67,52.77,172.81,52.77z M112.73,81.92c-0.63-0.59-1.62-0.56-2.21,0.08
						c0,0-0.37,0.4-1.39,0.94c-1.02,0.54-2.21,0.8-3.58,0.8c-1.18,0-2.27-0.21-3.26-0.64c-0.99-0.43-1.84-1.03-2.55-1.79
						c-0.71-0.76-1.27-1.68-1.67-2.75c-0.4-1.07-0.6-2.25-0.6-3.54c0-1.26,0.2-2.42,0.6-3.48c0.4-1.06,0.97-1.98,1.69-2.75
						c0.72-0.78,1.59-1.39,2.59-1.83c1.01-0.44,2.11-0.66,3.32-0.66c1.1,0,2.17,0.21,3.22,0.64c1.05,0.43,1.44,0.84,1.44,0.84
						c0.6,0.62,1.59,0.63,2.2,0.02l2.44-2.44c0.61-0.61,0.58-1.57-0.08-2.14c0,0-1.59-1.38-3.54-2.09
						c-1.94-0.71-3.92-1.07-5.93-1.07c-2.17,0-4.2,0.35-6.07,1.05c-1.88,0.7-3.51,1.7-4.91,3c-1.39,1.3-2.49,2.88-3.28,4.73
						c-0.79,1.85-1.19,3.91-1.19,6.19c0,2.23,0.39,4.26,1.17,6.11c0.78,1.85,1.85,3.44,3.22,4.77c1.37,1.33,2.98,2.35,4.85,3.08
						c1.86,0.72,3.89,1.09,6.09,1.09c2.41,0,4.54-0.42,6.39-1.27c1.85-0.84,3.51-2.37,3.51-2.37c0.64-0.59,0.64-1.55,0.01-2.14
						L112.73,81.92z M147.03,83.43h-7.86c-0.86,0-1.57-0.71-1.57-1.57v-19.4c0-0.86-0.71-1.57-1.57-1.57h-3.67
						c-0.86,0-1.57,0.71-1.57,1.57v25.16c0,0.86,0.71,1.57,1.57,1.57h14.68c0.86,0,1.57-0.71,1.57-1.57v-2.62
						C148.61,84.14,147.9,83.43,147.03,83.43z M168.79,60.89h-3.67c-0.87,0-1.57,0.71-1.57,1.57v25.42c0,0.86,0.71,1.57,1.57,1.57
						h3.67c0.86,0,1.57-0.71,1.57-1.57V62.47C170.36,61.6,169.65,60.89,168.79,60.89z M212.3,60.89h-3.57
						c-0.86,0-1.57,0.71-1.56,1.57l0.13,15.46c0.01,0.86-0.01,1.57-0.05,1.57s-0.43-0.6-0.89-1.34l-9.84-15.93
						c-0.45-0.74-1.53-1.34-2.4-1.34h-4.64c-0.86,0-1.57,0.71-1.57,1.57v25.42c0,0.86,0.71,1.57,1.57,1.57h3.57
						c0.86,0,1.57-0.71,1.56-1.57l-0.14-15.73c-0.01-0.86,0.01-1.57,0.05-1.57s0.43,0.6,0.89,1.34l9.82,15.93
						c0.45,0.74,1.53,1.34,2.4,1.34h4.66c0.86,0,1.57-0.71,1.57-1.57V62.47C213.87,61.6,213.16,60.89,212.3,60.89z M417.27,83.43
						h-9.96c-0.86,0-1.57-0.71-1.57-1.57v-2.88c0-0.86,0.71-1.57,1.57-1.57h8.65c0.86,0,1.57-0.71,1.57-1.57v-2.1
						c0-0.86-0.71-1.57-1.57-1.57h-8.65c-0.86,0-1.57-0.71-1.57-1.57v-2.36c0-0.86,0.71-1.57,1.57-1.57h9.17
						c0.86,0,1.57-0.71,1.57-1.57v-2.62c0-0.86-0.71-1.57-1.57-1.57h-15.99c-0.86,0-1.57,0.71-1.57,1.57v25.16
						c0,0.86,0.71,1.57,1.57,1.57h16.77c0.86,0,1.57-0.71,1.57-1.57v-2.62C418.84,84.14,418.13,83.43,417.27,83.43z M377.74,63.94
						c-1.53-1.09-3.28-1.87-5.25-2.34c-1.96-0.47-4.4-0.61-4.4-0.61c-0.86-0.05-2.28-0.09-3.14-0.09h-7.19
						c-0.86,0-1.57,0.71-1.57,1.57v25.42c0,0.86,0.71,1.57,1.57,1.57h7.51c0.86,0,2.28-0.05,3.14-0.11c0,0,2.33-0.16,4.24-0.72
						c1.91-0.55,3.62-1.41,5.15-2.58c1.52-1.17,2.74-2.66,3.67-4.48c0.93-1.82,1.39-3.97,1.39-6.48c0-2.69-0.47-4.95-1.41-6.78
						C380.51,66.49,379.28,65.03,377.74,63.94z M375.02,79.02c-0.53,1.08-1.23,1.95-2.11,2.59c-0.88,0.65-1.89,1.11-3.04,1.4
						c-1.15,0.28-2.02,0.33-2.02,0.33c-0.86,0.05-2.28,0.09-3.14,0.09h-0.14c-0.86,0-1.57-0.71-1.57-1.57V68.23
						c0-0.86,0.71-1.57,1.57-1.57h0.3c0.86,0,2.28,0.04,3.14,0.09c0,0,0.77,0.04,1.89,0.31c1.12,0.27,2.12,0.72,3,1.36
						c0.88,0.64,1.58,1.49,2.11,2.55c0.53,1.07,0.79,2.41,0.79,4.03C375.81,76.6,375.55,77.94,375.02,79.02z M310.31,62.35
						c-0.33-0.8-1.31-1.45-2.18-1.45h-3.55c-0.86,0-1.85,0.65-2.18,1.45l-10.77,25.67c-0.33,0.8,0.1,1.45,0.96,1.45h4.15
						c0.86,0,1.82-0.66,2.12-1.47l1.06-2.82c0.3-0.81,1.26-1.47,2.12-1.47h8.22c0.86,0,1.83,0.66,2.15,1.46l1.12,2.84
						c0.32,0.8,1.29,1.46,2.15,1.46h4.31c0.86,0,1.3-0.65,0.97-1.45L310.31,62.35z M308.2,78.19h-4.01c-0.86,0-1.33-0.66-1.03-1.47
						l2.53-6.82c0.3-0.81,0.79-0.81,1.08,0l2.47,6.82C309.53,77.53,309.06,78.19,308.2,78.19z M276.93,81.92
						c-0.63-0.59-1.62-0.56-2.21,0.08c0,0-0.37,0.4-1.39,0.94c-1.02,0.54-2.21,0.8-3.58,0.8c-1.18,0-2.27-0.21-3.26-0.64
						c-0.99-0.43-1.84-1.03-2.55-1.79c-0.71-0.76-1.27-1.68-1.67-2.75c-0.4-1.07-0.6-2.25-0.6-3.54c0-1.26,0.2-2.42,0.6-3.48
						c0.4-1.06,0.97-1.98,1.69-2.75c0.72-0.78,1.59-1.39,2.59-1.83c1.01-0.44,2.11-0.66,3.32-0.66c1.1,0,2.17,0.21,3.22,0.64
						c1.05,0.43,1.44,0.84,1.44,0.84c0.6,0.62,1.59,0.63,2.2,0.02l2.44-2.44c0.61-0.61,0.58-1.57-0.08-2.14c0,0-1.59-1.38-3.54-2.09
						c-1.94-0.71-3.92-1.07-5.93-1.07c-2.17,0-4.2,0.35-6.07,1.05c-1.88,0.7-3.51,1.7-4.91,3c-1.39,1.3-2.49,2.88-3.28,4.73
						c-0.79,1.85-1.19,3.91-1.19,6.19c0,2.23,0.39,4.26,1.17,6.11c0.78,1.85,1.85,3.44,3.22,4.77c1.37,1.33,2.98,2.35,4.85,3.08
						c1.86,0.72,3.89,1.09,6.09,1.09c2.41,0,4.54-0.42,6.39-1.27c1.85-0.84,3.51-2.37,3.51-2.37c0.64-0.59,0.64-1.55,0.01-2.14
						L276.93,81.92z M236.41,60.89h-3.67c-0.86,0-1.57,0.71-1.57,1.57v25.42c0,0.86,0.71,1.57,1.57,1.57h3.67
						c0.86,0,1.57-0.71,1.57-1.57V62.47C237.98,61.6,237.28,60.89,236.41,60.89z"/>
				</g>
			</g>
			<g>
				<path class="st2" d="M70.65,288.67c1.09,0,2.03-0.18,2.81-0.55c0.79-0.37,1.61-0.95,2.46-1.76l2.04,2.09
					c-1.98,2.2-4.39,3.3-7.22,3.3s-5.18-0.91-7.05-2.73c-1.87-1.82-2.8-4.13-2.8-6.91c0-2.79,0.95-5.11,2.85-6.97
					c1.9-1.86,4.3-2.79,7.21-2.79c2.9,0,5.33,1.07,7.28,3.21l-2.01,2.2c-0.89-0.86-1.74-1.46-2.53-1.79s-1.73-0.51-2.8-0.51
					c-1.89,0-3.48,0.61-4.77,1.84s-1.93,2.79-1.93,4.69s0.64,3.49,1.92,4.77C67.38,288.03,68.9,288.67,70.65,288.67z"/>
				<path class="st2" d="M92.91,289.62c-1.43,1.42-3.22,2.13-5.36,2.13c-2.14,0-3.93-0.71-5.36-2.13c-1.43-1.42-2.14-3.16-2.14-5.21
					c0-2.05,0.71-3.79,2.14-5.21c1.43-1.42,3.22-2.13,5.36-2.13c2.14,0,3.93,0.71,5.36,2.13c1.43,1.42,2.14,3.16,2.14,5.21
					C95.06,286.46,94.34,288.2,92.91,289.62z M84.32,287.77c0.85,0.87,1.92,1.3,3.23,1.3c1.3,0,2.38-0.43,3.23-1.3
					c0.85-0.87,1.27-1.99,1.27-3.36c0-1.38-0.42-2.5-1.27-3.36c-0.85-0.87-1.93-1.3-3.23-1.3c-1.3,0-2.38,0.43-3.23,1.3
					c-0.85,0.87-1.27,1.99-1.27,3.36C83.05,285.78,83.48,286.9,84.32,287.77z"/>
				<path class="st2" d="M101.46,283.82v7.72h-3v-14.25h3v2.6c0.48-0.88,1.15-1.56,2-2.06s1.76-0.75,2.75-0.75
					c1.61,0,2.91,0.49,3.9,1.47s1.49,2.4,1.49,4.26v8.74h-3v-7.82c0-2.63-1.09-3.94-3.27-3.94c-1.04,0-1.94,0.34-2.71,1.03
					C101.84,281.49,101.46,282.5,101.46,283.82z"/>
				<path class="st2" d="M125.92,287.27c0,1.36-0.49,2.44-1.47,3.26s-2.24,1.22-3.78,1.22c-1.04,0-2.11-0.19-3.23-0.56
					s-2.1-0.9-2.96-1.58l1.45-2.33c1.66,1.25,3.27,1.88,4.82,1.88c0.68,0,1.21-0.16,1.61-0.47c0.39-0.31,0.59-0.71,0.59-1.19
					c0-0.71-0.95-1.36-2.84-1.93c-0.14-0.05-0.25-0.09-0.32-0.11c-2.97-0.8-4.45-2.14-4.45-4.02c0-1.32,0.51-2.38,1.54-3.17
					s2.36-1.19,4.01-1.19s3.2,0.48,4.66,1.45l-1.12,2.22c-1.16-0.77-2.42-1.15-3.78-1.15c-0.71,0-1.29,0.13-1.74,0.39
					c-0.45,0.26-0.67,0.65-0.67,1.17c0,0.46,0.23,0.8,0.7,1.02c0.32,0.16,0.77,0.31,1.35,0.46c0.58,0.14,1.09,0.29,1.54,0.43
					c0.45,0.14,0.88,0.3,1.3,0.48c0.42,0.18,0.87,0.43,1.35,0.75C125.44,284.92,125.92,285.92,125.92,287.27z"/>
				<path class="st2" d="M139.29,285v-7.72h3v14.25h-3v-2.6c-0.48,0.88-1.15,1.56-2,2.06s-1.76,0.75-2.75,0.75
					c-1.61,0-2.91-0.49-3.9-1.47c-0.99-0.98-1.49-2.4-1.49-4.26v-8.74h3v7.82c0,2.63,1.09,3.94,3.27,3.94
					c1.04,0,1.94-0.34,2.71-1.03S139.29,286.32,139.29,285z"/>
				<path class="st2" d="M149.63,291.53h-3v-19.88h3V291.53z"/>
				<path class="st2" d="M157.67,279.69v7.23c0,0.68,0.18,1.22,0.54,1.62c0.36,0.4,0.86,0.6,1.5,0.6c0.64,0,1.26-0.31,1.85-0.94
					l1.23,2.12c-1.05,0.95-2.22,1.42-3.5,1.42c-1.28,0-2.37-0.44-3.27-1.33c-0.9-0.88-1.35-2.08-1.35-3.58v-7.15h-1.8v-2.41h1.8
					v-4.47h3v4.47h3.75v2.41H157.67z"/>
				<path class="st2" d="M176.72,291.53h-2.73v-1.9c-1.18,1.41-2.76,2.12-4.74,2.12c-1.48,0-2.71-0.42-3.68-1.26
					s-1.46-1.96-1.46-3.36c0-1.4,0.52-2.45,1.55-3.15c1.04-0.7,2.44-1.04,4.21-1.04h3.88v-0.54c0-1.89-1.05-2.84-3.16-2.84
					c-1.32,0-2.7,0.48-4.13,1.45l-1.34-1.88c1.73-1.38,3.7-2.06,5.89-2.06c1.68,0,3.05,0.42,4.11,1.27s1.59,2.18,1.59,4.01V291.53z
					 M173.72,286.23v-1.21h-3.38c-2.16,0-3.24,0.68-3.24,2.04c0,0.7,0.27,1.23,0.8,1.59c0.54,0.37,1.28,0.55,2.24,0.55
					c0.96,0,1.79-0.27,2.5-0.8C173.36,287.86,173.72,287.14,173.72,286.23z"/>
				<path class="st2" d="M191.06,287.27c0,1.36-0.49,2.44-1.47,3.26s-2.24,1.22-3.78,1.22c-1.04,0-2.11-0.19-3.23-0.56
					s-2.1-0.9-2.96-1.58l1.45-2.33c1.66,1.25,3.27,1.88,4.82,1.88c0.68,0,1.21-0.16,1.61-0.47c0.39-0.31,0.59-0.71,0.59-1.19
					c0-0.71-0.95-1.36-2.84-1.93c-0.14-0.05-0.25-0.09-0.32-0.11c-2.97-0.8-4.45-2.14-4.45-4.02c0-1.32,0.51-2.38,1.54-3.17
					s2.36-1.19,4.01-1.19s3.2,0.48,4.66,1.45l-1.12,2.22c-1.16-0.77-2.42-1.15-3.78-1.15c-0.71,0-1.29,0.13-1.74,0.39
					c-0.45,0.26-0.67,0.65-0.67,1.17c0,0.46,0.23,0.8,0.7,1.02c0.32,0.16,0.77,0.31,1.35,0.46c0.58,0.14,1.09,0.29,1.54,0.43
					c0.45,0.14,0.88,0.3,1.3,0.48c0.42,0.18,0.87,0.43,1.35,0.75C190.57,284.92,191.06,285.92,191.06,287.27z"/>
				<path class="st2" d="M209.44,277.07c1.91,0,3.55,0.66,4.9,1.98c1.36,1.32,2.04,3.08,2.04,5.28s-0.67,3.98-2.02,5.36
					c-1.35,1.38-2.92,2.06-4.72,2.06c-1.8,0-3.41-0.79-4.84-2.36v7.34h-3v-19.45h3v2.49C205.98,277.97,207.53,277.07,209.44,277.07z
					 M204.75,284.43c0,1.36,0.41,2.47,1.23,3.34c0.82,0.87,1.82,1.3,3,1.3c1.18,0,2.21-0.43,3.08-1.29
					c0.88-0.86,1.31-1.97,1.31-3.34c0-1.37-0.43-2.5-1.29-3.4c-0.86-0.9-1.88-1.35-3.08-1.35c-1.2,0-2.21,0.45-3.03,1.35
					C205.16,281.95,204.75,283.08,204.75,284.43z"/>
				<path class="st2" d="M231.35,291.53h-2.73v-1.9c-1.18,1.41-2.76,2.12-4.74,2.12c-1.48,0-2.71-0.42-3.68-1.26
					s-1.46-1.96-1.46-3.36c0-1.4,0.52-2.45,1.55-3.15c1.04-0.7,2.44-1.04,4.21-1.04h3.88v-0.54c0-1.89-1.05-2.84-3.16-2.84
					c-1.32,0-2.7,0.48-4.13,1.45l-1.34-1.88c1.73-1.38,3.7-2.06,5.89-2.06c1.68,0,3.05,0.42,4.11,1.27s1.59,2.18,1.59,4.01V291.53z
					 M228.35,286.23v-1.21h-3.38c-2.16,0-3.24,0.68-3.24,2.04c0,0.7,0.27,1.23,0.8,1.59c0.54,0.37,1.28,0.55,2.24,0.55
					c0.96,0,1.79-0.27,2.5-0.8C228,287.86,228.35,287.14,228.35,286.23z"/>
				<path class="st2" d="M243.01,280.09c-1.48,0-2.6,0.48-3.35,1.45c-0.75,0.96-1.13,2.26-1.13,3.88v6.11h-3v-14.25h3v2.87
					c0.48-0.89,1.14-1.62,1.97-2.2c0.83-0.57,1.71-0.87,2.64-0.88l0.03,3.03C243.12,280.09,243.06,280.09,243.01,280.09z"/>
				<path class="st2" d="M257.59,291.53h-2.73v-1.9c-1.18,1.41-2.76,2.12-4.74,2.12c-1.48,0-2.71-0.42-3.68-1.26
					s-1.46-1.96-1.46-3.36c0-1.4,0.52-2.45,1.55-3.15c1.04-0.7,2.44-1.04,4.21-1.04h3.88v-0.54c0-1.89-1.05-2.84-3.16-2.84
					c-1.32,0-2.7,0.48-4.13,1.45l-1.34-1.88c1.73-1.38,3.7-2.06,5.89-2.06c1.68,0,3.05,0.42,4.11,1.27s1.59,2.18,1.59,4.01V291.53z
					 M254.58,286.23v-1.21h-3.38c-2.16,0-3.24,0.68-3.24,2.04c0,0.7,0.27,1.23,0.8,1.59c0.54,0.37,1.28,0.55,2.24,0.55
					c0.96,0,1.79-0.27,2.5-0.8C254.23,287.86,254.58,287.14,254.58,286.23z"/>
				<path class="st2" d="M272.8,279.69v7.23c0,0.68,0.18,1.22,0.54,1.62c0.36,0.4,0.86,0.6,1.5,0.6c0.64,0,1.26-0.31,1.85-0.94
					l1.23,2.12c-1.05,0.95-2.22,1.42-3.5,1.42c-1.28,0-2.37-0.44-3.27-1.33c-0.9-0.88-1.35-2.08-1.35-3.58v-7.15h-1.8v-2.41h1.8
					v-4.47h3v4.47h3.75v2.41H272.8z"/>
				<path class="st2" d="M292.12,289.62c-1.43,1.42-3.22,2.13-5.36,2.13c-2.14,0-3.93-0.71-5.36-2.13
					c-1.43-1.42-2.14-3.16-2.14-5.21c0-2.05,0.71-3.79,2.14-5.21c1.43-1.42,3.22-2.13,5.36-2.13c2.14,0,3.93,0.71,5.36,2.13
					c1.43,1.42,2.14,3.16,2.14,5.21C294.27,286.46,293.55,288.2,292.12,289.62z M283.53,287.77c0.85,0.87,1.92,1.3,3.23,1.3
					c1.3,0,2.38-0.43,3.23-1.3c0.85-0.87,1.27-1.99,1.27-3.36c0-1.38-0.42-2.5-1.27-3.36c-0.85-0.87-1.93-1.3-3.23-1.3
					c-1.3,0-2.38,0.43-3.23,1.3c-0.85,0.87-1.27,1.99-1.27,3.36C282.26,285.78,282.69,286.9,283.53,287.77z"/>
				<path class="st2" d="M298.77,289.71c-1.34-1.36-2.01-3.14-2.01-5.36s0.69-3.98,2.06-5.31c1.38-1.32,3.01-1.98,4.92-1.98
					s3.43,0.8,4.59,2.41v-7.82h3v19.88h-3v-2.14c-1.11,1.57-2.72,2.36-4.85,2.36C301.68,291.75,300.11,291.07,298.77,289.71z
					 M299.76,284.47c0,1.37,0.44,2.48,1.31,3.34c0.88,0.86,1.9,1.29,3.08,1.29s2.18-0.43,3-1.3c0.82-0.87,1.23-1.98,1.23-3.34
					c0-1.36-0.41-2.49-1.23-3.4s-1.83-1.37-3.03-1.37c-1.2,0-2.22,0.46-3.08,1.37S299.76,283.11,299.76,284.47z"/>
				<path class="st2" d="M327.22,291.53h-2.73v-1.9c-1.18,1.41-2.76,2.12-4.74,2.12c-1.48,0-2.71-0.42-3.68-1.26
					s-1.46-1.96-1.46-3.36c0-1.4,0.52-2.45,1.55-3.15c1.04-0.7,2.44-1.04,4.21-1.04h3.88v-0.54c0-1.89-1.05-2.84-3.16-2.84
					c-1.32,0-2.7,0.48-4.13,1.45l-1.34-1.88c1.73-1.38,3.7-2.06,5.89-2.06c1.68,0,3.05,0.42,4.11,1.27s1.59,2.18,1.59,4.01V291.53z
					 M324.22,286.23v-1.21h-3.38c-2.16,0-3.24,0.68-3.24,2.04c0,0.7,0.27,1.23,0.8,1.59c0.54,0.37,1.28,0.55,2.24,0.55
					c0.96,0,1.79-0.27,2.5-0.8C323.86,287.86,324.22,287.14,324.22,286.23z"/>
				<path class="st2" d="M350.29,291.53h-2.73v-1.9c-1.18,1.41-2.76,2.12-4.74,2.12c-1.48,0-2.71-0.42-3.68-1.26
					s-1.46-1.96-1.46-3.36c0-1.4,0.52-2.45,1.55-3.15c1.04-0.7,2.44-1.04,4.21-1.04h3.88v-0.54c0-1.89-1.05-2.84-3.16-2.84
					c-1.32,0-2.7,0.48-4.13,1.45l-1.34-1.88c1.73-1.38,3.7-2.06,5.89-2.06c1.68,0,3.05,0.42,4.11,1.27s1.59,2.18,1.59,4.01V291.53z
					 M347.29,286.23v-1.21h-3.38c-2.16,0-3.24,0.68-3.24,2.04c0,0.7,0.27,1.23,0.8,1.59c0.54,0.37,1.28,0.55,2.24,0.55
					c0.96,0,1.79-0.27,2.5-0.8C346.93,287.86,347.29,287.14,347.29,286.23z"/>
				<path class="st2" d="M365.51,276.1v1.18h3.75v2.41h-3.75v11.84h-3v-11.84h-1.8v-2.41h1.8v-1.1c0-1.5,0.45-2.69,1.35-3.58
					c0.9-0.88,1.99-1.33,3.27-1.33c1.28,0,2.44,0.47,3.5,1.42l-1.23,2.12c-0.59-0.62-1.21-0.94-1.85-0.94c-0.64,0-1.14,0.2-1.5,0.6
					S365.51,275.42,365.51,276.1z"/>
				<path class="st2" d="M383.57,291.53h-2.73v-1.9c-1.18,1.41-2.76,2.12-4.74,2.12c-1.48,0-2.71-0.42-3.68-1.26
					s-1.46-1.96-1.46-3.36c0-1.4,0.52-2.45,1.55-3.15c1.04-0.7,2.44-1.04,4.21-1.04h3.88v-0.54c0-1.89-1.05-2.84-3.16-2.84
					c-1.32,0-2.7,0.48-4.13,1.45l-1.34-1.88c1.73-1.38,3.7-2.06,5.89-2.06c1.68,0,3.05,0.42,4.11,1.27s1.59,2.18,1.59,4.01V291.53z
					 M380.57,286.23v-1.21h-3.38c-2.16,0-3.24,0.68-3.24,2.04c0,0.7,0.27,1.23,0.8,1.59c0.54,0.37,1.28,0.55,2.24,0.55
					c0.96,0,1.79-0.27,2.5-0.8C380.21,287.86,380.57,287.14,380.57,286.23z"/>
				<path class="st2" d="M390.75,283.82v7.72h-3v-14.25h3v2.6c0.43-0.88,1.08-1.56,1.94-2.06c0.87-0.5,1.8-0.75,2.8-0.75
					c2.25,0,3.78,0.93,4.58,2.79c1.41-1.86,3.17-2.79,5.28-2.79c1.61,0,2.91,0.49,3.9,1.47s1.49,2.4,1.49,4.26v8.74h-3v-7.82
					c0-2.63-1.09-3.94-3.27-3.94c-1.02,0-1.91,0.33-2.67,0.98c-0.76,0.65-1.16,1.6-1.19,2.85v7.93h-3v-7.82
					c0-1.36-0.24-2.35-0.72-2.99c-0.48-0.63-1.24-0.95-2.28-0.95s-1.94,0.34-2.71,1.03C391.13,281.49,390.75,282.5,390.75,283.82z"
					/>
				<path class="st2" d="M414.92,277.28h3v14.25h-3V277.28z M417.84,275.46h-2.52l2.84-3.75l2.95,1.31L417.84,275.46z"/>
				<path class="st2" d="M425.26,291.53h-3v-19.88h3V291.53z"/>
				<path class="st2" d="M429.78,274.44c-0.38-0.38-0.56-0.82-0.56-1.34c0-0.52,0.19-0.96,0.56-1.34c0.38-0.38,0.82-0.56,1.34-0.56
					c0.52,0,0.96,0.19,1.34,0.56s0.56,0.82,0.56,1.34c0,0.52-0.19,0.96-0.56,1.34s-0.82,0.56-1.34,0.56
					C430.61,275,430.16,274.81,429.78,274.44z M432.6,291.53h-3v-14.25h3V291.53z"/>
				<path class="st2" d="M448.49,291.53h-2.73v-1.9c-1.18,1.41-2.76,2.12-4.74,2.12c-1.48,0-2.71-0.42-3.68-1.26
					s-1.46-1.96-1.46-3.36c0-1.4,0.52-2.45,1.55-3.15c1.04-0.7,2.44-1.04,4.21-1.04h3.88v-0.54c0-1.89-1.05-2.84-3.16-2.84
					c-1.32,0-2.7,0.48-4.13,1.45l-1.34-1.88c1.73-1.38,3.7-2.06,5.89-2.06c1.68,0,3.05,0.42,4.11,1.27s1.59,2.18,1.59,4.01V291.53z
					 M445.49,286.23v-1.21h-3.38c-2.16,0-3.24,0.68-3.24,2.04c0,0.7,0.27,1.23,0.8,1.59c0.54,0.37,1.28,0.55,2.24,0.55
					c0.96,0,1.79-0.27,2.5-0.8C445.13,287.86,445.49,287.14,445.49,286.23z"/>
			</g>
		</g>
	</g>
</g>
<g id="Layer_2" class="st9">
</g>
</svg>
