<svg xmlns="http://www.w3.org/2000/svg" xmlns:xlink="http://www.w3.org/1999/xlink" width="80" height="80" viewBox="0 0 80 80">
  <defs>
    <clipPath id="clip-custom_1">
      <rect width="80" height="80"/>
    </clipPath>
  </defs>
  <g id="custom_1" data-name="custom – 1" clip-path="url(#clip-custom_1)">
    <rect width="80" height="80" fill="#83b4f5"/>
    <g id="avatar" transform="translate(-25.073 6)">
      <g id="Group_2" data-name="Group 2" transform="translate(36.073)">
        <g id="Group_1" data-name="Group 1">
          <path id="Path_1" data-name="Path 1" d="M151.476,36.5h.449a12.944,12.944,0,0,0,9.889-4.278c5.4-6.088,4.5-16.524,4.4-17.52-.351-7.476-3.886-11.053-6.8-12.723A15.6,15.6,0,0,0,151.869,0h-.238a15.62,15.62,0,0,0-7.547,1.922c-2.946,1.669-6.537,5.246-6.887,12.779-.1,1-1,11.432,4.4,17.52A12.892,12.892,0,0,0,151.476,36.5ZM140.942,15.051c0-.042.014-.084.014-.112.463-10.057,7.6-11.138,10.661-11.138h.168c3.787.084,10.226,1.627,10.661,11.138a.274.274,0,0,0,.014.112c.014.1,1,9.637-3.465,14.658a9.194,9.194,0,0,1-7.224,3h-.14a9.164,9.164,0,0,1-7.21-3C139.974,24.716,140.928,15.135,140.942,15.051Z" transform="translate(-122.913)" fill="#808ba8"/>
          <path id="Path_2" data-name="Path 2" d="M93.686,276.688v-.042c0-.112-.014-.224-.014-.351-.084-2.777-.267-9.272-6.354-11.348-.042-.014-.1-.028-.14-.042a40.474,40.474,0,0,1-11.643-5.3,1.893,1.893,0,1,0-2.174,3.1,43.686,43.686,0,0,0,12.807,5.849c3.268,1.164,3.633,4.657,3.731,7.855a2.816,2.816,0,0,0,.014.351,25.459,25.459,0,0,1-.295,4.334c-2.272,1.291-11.18,5.751-24.73,5.751-13.494,0-22.457-4.475-24.744-5.765a24.1,24.1,0,0,1-.295-4.334c0-.112.014-.224.014-.351.1-3.2.463-6.691,3.731-7.855A44.1,44.1,0,0,0,56.4,262.689a1.893,1.893,0,1,0-2.174-3.1,40.032,40.032,0,0,1-11.643,5.3c-.056.014-.1.028-.14.042-6.088,2.09-6.27,8.585-6.354,11.348a2.817,2.817,0,0,1-.014.351v.042c-.014.729-.028,4.475.715,6.354a1.8,1.8,0,0,0,.729.884c.421.281,10.506,6.7,27.381,6.7s26.96-6.438,27.381-6.7a1.877,1.877,0,0,0,.729-.884C93.714,281.162,93.7,277.417,93.686,276.688Z" transform="translate(-36.073 -222.88)" fill="#808ba8"/>
        </g>
      </g>
    </g>
  </g>
</svg>
