<svg xmlns="http://www.w3.org/2000/svg" width="400.13" height="318.948" viewBox="0 0 400.13 318.948">
  <g id="Group_908" data-name="Group 908" transform="translate(-118.003 -382.338)">
    <g id="Group_907" data-name="Group 907" transform="translate(-26 -178)">
      <g id="Group_896" data-name="Group 896" transform="translate(144.003 735.576)">
        <g id="Group_895" data-name="Group 895" transform="translate(8.398 50.606)">
          <g id="Group_894" data-name="Group 894">
            <path id="Path_1167" data-name="Path 1167" d="M127.78,57.17l5.083,25.919c0,1.61,4.925,2.968,15.09,3.031,10.165.032,15.122-1.2,15.122-2.81L168.821,57.3Z" transform="translate(-126.58 -47.572)" fill="#ff8f8f"/>
            <path id="Path_1168" data-name="Path 1168" d="M127.526,55.28l-.126,8.9c0,2.02,9.66,3.725,21.625,3.757,11.933.032,21.657-1.578,21.657-3.6l.126-8.9Z" transform="translate(-127.4 -51.649)" fill="#d95f76"/>
            <path id="Path_1169" data-name="Path 1169" d="M170.722,57.887c0,2.02-9.692,3.631-21.657,3.6-11.933-.032-21.625-1.736-21.625-3.757s9.692-3.631,21.657-3.6C161.03,54.193,170.722,55.867,170.722,57.887Z" transform="translate(-127.314 -54.13)" fill="#d95f76"/>
            <path id="Path_1170" data-name="Path 1170" d="M128.81,58.137a83.511,83.511,0,0,0,17.269,1.515,85.189,85.189,0,0,0,17.363-1.421c-2.052-1.831-9.029-3.22-17.3-3.252C137.87,54.98,130.894,56.306,128.81,58.137Z" transform="translate(-124.359 -52.296)" fill="#311e69"/>
          </g>
        </g>
        <path id="Path_1171" data-name="Path 1171" d="M133.647,69.07s3.883-23.393,11.46-30.97c0,0,4.988,23.614,4.041,32.864-.979,9.218-3.536,14.554-10.323,12.47C132.037,81.319,133.11,72.037,133.647,69.07Z" transform="translate(-106.402 -38.1)" fill="#2e88bf"/>
        <path id="Path_1172" data-name="Path 1172" d="M134.27,84.548s1.1-22.572,13.922-32.517c12.817-9.913,19.1-9.66,19.1-9.66S152.77,81.012,146.235,84.548A12.182,12.182,0,0,1,134.27,84.548Z" transform="translate(-104.184 -28.89)" fill="#4cb4d4"/>
        <path id="Path_1173" data-name="Path 1173" d="M139.766,67.233S133.231,43.4,132.158,39.42c0,0-11.239,28.286-1.326,38.326S140.492,69.916,139.766,67.233Z" transform="translate(-120.414 -35.253)" fill="#2e88bf"/>
        <path id="Path_1174" data-name="Path 1174" d="M147,89.265s-.947-22.7-2.4-31.1S133.614,40.9,133.614,40.9s-7.261,24.845-2.431,35.327C136.044,86.739,139.265,91.033,147,89.265Z" transform="translate(-114.419 -32.06)" fill="#4cb4d4"/>
        <path id="Path_1175" data-name="Path 1175" d="M148.575,70.2,124.74,45.35s.221,18.058,8.4,25.793,8.871,8.113,17.868,8.3S148.575,70.2,148.575,70.2Z" transform="translate(-124.74 -22.462)" fill="#4cb4d4"/>
        <path id="Path_1176" data-name="Path 1176" d="M157.758,44.7c-4.862,6.44-9.5,13.007-13.828,19.857-2.147,3.41-4.23,6.914-6.093,10.544-.915,1.831-1.8,3.694-2.557,5.651h0a12.89,12.89,0,0,0,3.473.316c.505-1.578,1.1-3.157,1.736-4.735,1.515-3.662,3.283-7.261,5.146-10.8C149.36,58.433,153.433,51.487,157.758,44.7Z" transform="translate(-102.005 -23.864)" fill="#82e3f9"/>
        <path id="Path_1177" data-name="Path 1177" d="M139.406,78.343a51.845,51.845,0,0,1-2.589-5.114,39.861,39.861,0,0,1-1.61-5.493c-.884-3.788-1.547-7.671-2.147-11.555s-1.137-7.766-1.61-11.681c.158,3.915.347,7.861.631,11.776s.631,7.861,1.231,11.776a37.85,37.85,0,0,0,1.231,5.967,55.157,55.157,0,0,0,2.3,5.619c.316.695.663,1.326.979,2.02a10.415,10.415,0,0,0,3.6.095C140.731,80.647,140.037,79.511,139.406,78.343Z" transform="translate(-110.267 -24.295)" fill="#82e3f9"/>
        <path id="Path_1178" data-name="Path 1178" d="M140.784,68.052a79.185,79.185,0,0,1-5.209-5.967c-3.315-4.136-6.409-8.492-9.345-12.975,2.368,4.8,4.925,9.534,7.735,14.112a78.887,78.887,0,0,0,4.578,6.724c.032.063.095.095.126.158a14.765,14.765,0,0,0,5.43,1.1C142.962,70.23,141.857,69.157,140.784,68.052Z" transform="translate(-121.526 -14.352)" fill="#82e3f9"/>
      </g>
      <g id="Group_905" data-name="Group 905" transform="translate(382.064 560.338)">
        <g id="Group_897" data-name="Group 897" transform="translate(42.763 48.875)">
          <path id="Path_1179" data-name="Path 1179" d="M198.212,180.238a1.459,1.459,0,0,1-1.452-1.452c0-61.5,11.664-100.944,21.407-123.146,10.633-24.217,21.219-33.726,21.641-34.1a1.461,1.461,0,1,1,1.92,2.2c-.094.094-10.633,9.6-21.032,33.351-9.6,21.969-21.079,60.894-21.079,121.741A1.38,1.38,0,0,1,198.212,180.238Z" transform="translate(-196.76 -21.184)" fill="#4cb4d4"/>
        </g>
        <g id="Group_899" data-name="Group 899" transform="translate(18.64 200.48)">
          <g id="Group_898" data-name="Group 898">
            <path id="Path_1180" data-name="Path 1180" d="M191.91,55.98l6.043,48.809c0,1.921,5.855,3.56,17.987,3.607s18.034-1.452,18.034-3.373l6.839-48.9Z" transform="translate(-190.505 -44.597)" fill="#ff8f8f"/>
            <path id="Path_1181" data-name="Path 1181" d="M191.75,54.46l-.141,10.586c0,2.436,11.523,4.4,25.763,4.45s25.81-1.874,25.81-4.309l.141-10.586Z" transform="translate(-191.61 -50.197)" fill="#d95f76"/>
            <path id="Path_1182" data-name="Path 1182" d="M243.2,58c0,2.436-11.57,4.356-25.81,4.309s-25.763-2.061-25.763-4.45c0-2.436,11.57-4.356,25.81-4.309S243.249,55.565,243.2,58Z" transform="translate(-191.536 -53.55)" fill="#d95f76"/>
            <path id="Path_1183" data-name="Path 1183" d="M192.74,57.944c4.684,1.077,12.179,1.78,20.563,1.827a102.835,102.835,0,0,0,20.7-1.686c-2.483-2.2-10.727-3.841-20.61-3.841C203.514,54.149,195.176,55.742,192.74,57.944Z" transform="translate(-187.447 -51.01)" fill="#311e69"/>
          </g>
        </g>
        <g id="Group_900" data-name="Group 900" transform="translate(80.323 12.75)">
          <path id="Path_1184" data-name="Path 1184" d="M214.294,61.428a14.559,14.559,0,0,1-9.181-16.769c1.5-6.933,4.45-15.786,10.211-21.922,10.727-11.382,30.541-12.319,37.333-2.576s7.776,27.262,1.967,29.885c-5.855,2.576-21.407,5.059-21.407,5.059l4.918,1.358a3,3,0,0,1-.094,5.808C231.672,63.77,222.913,64.567,214.294,61.428Z" transform="translate(-204.779 -13.472)" fill="#4cb4d4"/>
          <path id="Path_1185" data-name="Path 1185" d="M257.637,18.29a45.458,45.458,0,0,1-8.431.7c-6-.375-5.527-.234-16.207,1.124s-3.185,4.544-9.7,7.635-10.914-2.108-14.474,1.546a28.081,28.081,0,0,0-3.888,5.246,14.6,14.6,0,0,0,8.759,9.134c8.619,3.138,17.378,2.342,23.7.843a3,3,0,0,0,.094-5.808l-4.918-1.358s15.6-2.483,21.407-5.059C257.215,30.844,258.339,24.941,257.637,18.29Z" transform="translate(-204.184 4.278)" fill="#2e88bf"/>
          <path id="Path_1186" data-name="Path 1186" d="M256.607,17.4a2.282,2.282,0,0,0-.187-.515c-3.373-.281-6.745-.375-10.118-.328a68.167,68.167,0,0,0-8.713.656,56.587,56.587,0,0,0-8.666,1.686l-2.155.656c-.7.234-1.405.562-2.108.843-1.405.562-2.67,1.358-4.028,2.061a47.221,47.221,0,0,0-7.12,5.48,62.9,62.9,0,0,0-6.042,6.652c-.937,1.171-1.78,2.389-2.623,3.654,0,.047-.047.047-.047.094a14,14,0,0,0,2.108,5.808c.515-1.124,1.171-2.342,1.827-3.513.7-1.218,1.405-2.389,2.2-3.56a57.678,57.678,0,0,1,5.153-6.558,46.532,46.532,0,0,1,6.23-5.527c1.171-.7,2.3-1.546,3.56-2.155.609-.281,1.218-.656,1.874-.937l1.921-.749a62.251,62.251,0,0,1,8.2-2.2,73.9,73.9,0,0,1,8.478-1.218C249.815,17.5,253.234,17.355,256.607,17.4Z" transform="translate(-204.699 -2.141)" fill="#82e3f9"/>
        </g>
        <g id="Group_901" data-name="Group 901" transform="translate(39.142 151.602)">
          <path id="Path_1187" data-name="Path 1187" d="M203.683,99.442a1.508,1.508,0,0,1-1.405-.984C189.771,60.61,199.7,44.45,200.123,43.794a1.406,1.406,0,0,1,2.014-.422,1.436,1.436,0,0,1,.421,2.014h0c-.094.141-9.556,15.832,2.436,52.181a1.435,1.435,0,0,1-.937,1.827A2.522,2.522,0,0,1,203.683,99.442Z" transform="translate(-195.987 -43.115)" fill="#4cb4d4"/>
        </g>
        <g id="Group_902" data-name="Group 902" transform="translate(32.239 81.199)">
          <path id="Path_1188" data-name="Path 1188" d="M204.569,154.815a1.472,1.472,0,0,1-1.218-.656c-18.362-26.887-2.529-120.851-1.827-124.88a1.452,1.452,0,1,1,2.857.515c-.187.984-16.3,96.821,1.358,122.725a1.434,1.434,0,0,1-.375,2.014A1.272,1.272,0,0,1,204.569,154.815Z" transform="translate(-194.513 -28.085)" fill="#4cb4d4"/>
        </g>
        <g id="Group_903" data-name="Group 903" transform="translate(38.795 66.428)">
          <path id="Path_1189" data-name="Path 1189" d="M238.9,124.088c-24.311,12.132-50.683-12.038-40.893-37.38,4.4-11.382,9.275-22.2,14.333-30.353,12.881-20.7,41.221-28.526,57.8-31.384a2.585,2.585,0,0,1,1.733,4.778l-12.038,6.886s29.229-15.458,44.219-6.792,18.5,23.7,12.038,35.974c-6.511,12.272-50.636,13.3-50.636,13.3l10.68,2.389a8.883,8.883,0,0,1,3.747,15.5c-7.495,6.23-16.582,13.444-23.327,17.612C252.906,116.921,246.488,120.294,238.9,124.088Z" transform="translate(-195.913 -24.932)" fill="#4cb4d4"/>
          <path id="Path_1190" data-name="Path 1190" d="M312.79,40.827a27.1,27.1,0,0,0,2.9-9.087c-5.808.234-13.912.515-21.313.515-13.444,0-20.1,1.827-29.089,5.9-9.04,4.028-22.3,16.207-36.3,20.61s-24.311,19.346-28.667,23.889a23.865,23.865,0,0,0-3.513,4.918c7.448,12.319,23.514,19.018,38.785,11.429,7.635-3.794,14.006-7.167,17.706-9.415,6.745-4.169,15.832-11.382,23.327-17.612a8.883,8.883,0,0,0-3.747-15.5L262.2,54.083C262.154,54.13,306.279,53.1,312.79,40.827Z" transform="translate(-192.608 0.152)" fill="#2e88bf"/>
          <path id="Path_1191" data-name="Path 1191" d="M315.1,29.635c-4.59-.187-9.228-.375-13.865-.375a122.027,122.027,0,0,0-19.346,1.593,117.672,117.672,0,0,0-36.536,13.069c-2.857,1.593-5.668,3.185-8.432,4.918a64.188,64.188,0,0,0-8.01,5.762,107.653,107.653,0,0,0-13.678,14.052,188.418,188.418,0,0,0-11.617,15.692C201.184,88,198.888,91.7,196.64,95.494a31.1,31.1,0,0,0,2.9,4.4c2.389-4.5,4.965-8.947,7.635-13.256,3.373-5.434,6.979-10.68,10.867-15.739A107.518,107.518,0,0,1,230.881,56.85a69.144,69.144,0,0,1,7.495-5.762c2.67-1.78,5.387-3.466,8.1-5.106a114.2,114.2,0,0,1,35.553-13.959,118.832,118.832,0,0,1,19.111-2.2c4.637-.187,9.275-.141,13.865-.094C315.149,29.728,315.149,29.682,315.1,29.635Z" transform="translate(-193.234 -8.985)" fill="#82e3f9"/>
        </g>
        <g id="Group_904" data-name="Group 904">
          <path id="Path_1192" data-name="Path 1192" d="M201.493,96.469a21.433,21.433,0,0,0,16.91,4.872c9.7-1.358,25.669-4.825,34.756-13.209,9.93-9.228,6.839-30.119,2.717-42.438a3.9,3.9,0,0,0-7.4.094l-3.466,10.867-2.389-13.912a38.435,38.435,0,0,0-24.5-29.791,35.952,35.952,0,0,0-15.973-2.014c-23.7,2.3-6.183,49.371-6.183,49.371l-3.935-7.635a1.967,1.967,0,0,0-3.7.609C186.925,62.931,186.129,83.213,201.493,96.469Z" transform="translate(-187.631 -10.75)" fill="#4cb4d4"/>
          <path id="Path_1193" data-name="Path 1193" d="M223.461,97.386c6.417-2.108,12.741-5.059,17.285-9.275,9.93-9.228,6.839-30.119,2.717-42.438a3.9,3.9,0,0,0-7.4.094L232.6,56.634l-2.389-13.912a38.435,38.435,0,0,0-24.5-29.791A36.975,36.975,0,0,0,191,10.823c2.811,1.921,6.464,4.356,8.947,5.808,4.544,2.717,15.833,27.121,15.833,27.121s1.218,11.055,3.56,17.659c2.342,6.651,5.855,10.914,5.012,26.887A55.119,55.119,0,0,1,223.461,97.386Z" transform="translate(-175.217 -10.73)" fill="#2e88bf"/>
          <path id="Path_1194" data-name="Path 1194" d="M218.4,76.589c-1.78-8.01-3.794-15.973-6.136-23.842a174.623,174.623,0,0,0-8.478-23.093,77.485,77.485,0,0,0-6-10.727,31.711,31.711,0,0,0-7.541-8.057h-.094a30.352,30.352,0,0,1,7.12,8.338,76.187,76.187,0,0,1,5.387,10.914,175.607,175.607,0,0,1,7.26,23.233c1.921,7.916,3.513,15.879,4.871,23.889,1.218,7.307,2.3,14.661,3.092,22.016q2.249-.492,4.637-1.124C221.347,90.875,219.988,83.755,218.4,76.589Z" transform="translate(-178.349 -10.309)" fill="#82e3f9"/>
        </g>
      </g>
      <g id="Group_827" data-name="Group 827" transform="translate(-954.135 -1418.676)">
        <path id="Path_583" data-name="Path 583" d="M1312.278,2731.4a13.509,13.509,0,0,0,1.729-6.615l7.771-6s-.888,8.148.432,10.032c.576.822,2.165,1.375,4.353,2.169,3.484,1.573,7.79,3.613,7.993,4.765.339,1.923-19.672,2.862-23.09,1.156C1309.678,2736.021,1310.787,2733.856,1312.278,2731.4Z" transform="translate(-110.616 -442.717)" fill="#1e1240"/>
        <path id="Path_584" data-name="Path 584" d="M1133.466,2725.586a13.5,13.5,0,0,0,5.209-4.426l6.151,3.862a6.827,6.827,0,0,0-1.744,4.146c0,1,.985,2.367,2.32,4.275,1.95,3.286,4.31,7.424,3.815,8.487-.825,1.767-17.757-8.935-19.579-12.295C1128.685,2727.879,1130.838,2726.743,1133.466,2725.586Z" transform="translate(0 -444.164)" fill="#1e1240"/>
        <path id="Path_585" data-name="Path 585" d="M1211.425,2369.96c-18.874,4.419-38.386,4.092-45.951,3.741-.389,1.814-5.376,3.64-5.369,5.723.055,17.722,7.833,53.733,2.787,70.94-4.411,15.047-22.6,32.364-22.366,53.87.062,5.766,12.886,10.971,14.915,9.165,10.815-9.643,27.828-41.707,31.9-60.636,2.418-11.228,5.668-30.935,6.541-43.658.164-2.4,9.176,33.781,9.176,33.781s-5.548,63.9-.7,69.2c2.589,2.834,3.5,3.959,9.1,2.457,2.861-.771,8.214-.312,8.487-3.262,1.806-19.665,11.905-57.607,3.4-95.705C1222.029,2409.662,1214.017,2375.519,1211.425,2369.96Z" transform="translate(-6.788 -229.691)" fill="#00a6fe"/>
        <path id="Path_586" data-name="Path 586" d="M1305.355,2518.8c2.861-.771,8.214-.312,8.487-3.263,1.806-19.664,11.905-57.607,3.4-95.705-1.179-5.283-7.689-33.061-10.916-42.906-1.328,9.6-1.943,19.388-.67,26.66,3.586,20.451,9.612,45.122,9.55,53.764-.039,5.209-11.909,19.9-20.84,34.131-.292,12.283.043,22.841,1.892,24.866C1298.845,2519.182,1299.756,2520.307,1305.355,2518.8Z" transform="translate(-100.679 -233.948)" fill="#0385cb"/>
        <path id="Path_587" data-name="Path 587" d="M1200.32,2496.65c.214,2.476.4,4.929.533,7.334,4.7.261,15.059.526,17.383-1.966C1220.743,2499.332,1205.63,2497.281,1200.32,2496.65Z" transform="translate(-43.304 -307.059)" fill="#311e69"/>
        <path id="Path_588" data-name="Path 588" d="M1332.477,2488.309c-.3-1.655-.623-3.313-1-4.972-.125-.564-.315-1.39-.553-2.417l-9.254,5.851-4.084,3.734S1326.579,2489.956,1332.477,2488.309Z" transform="translate(-114.919 -297.453)" fill="#311e69"/>
        <path id="Path_589" data-name="Path 589" d="M1299.46,2198.462c6.673,2.254,9.5,23.6,10.465,33.656a3.994,3.994,0,0,0,3.784,3.609c9.709.467,22.432,1.97,21.607,6.653-1.328,7.514-12.61,8.031-25.582,9.46C1281.555,2254.94,1290.693,2195.5,1299.46,2198.462Z" transform="translate(-98.522 -124.895)" fill="#beced3"/>
        <path id="Path_590" data-name="Path 590" d="M1178.73,2207.644c-.6-11.166,3.878-18.387,21.455-23.34,17.426-4.909,28.794-1.129,32.352,6.124,6.019,12.267,4.084,21.4,3.815,33.929-.452,21.093,1.947,24.153,1.947,24.153l9.6,48.127a5.18,5.18,0,0,1-2.9,5.711l-12.236,5.665c-3.944,1.826-6.583-1.1-7.728-5.291l-6.478-22.978s-8.588,29.9-14.2,30.367c-4.286.35-16.655-1.375-20.645-1.479a4.36,4.36,0,0,1-4.193-4.582l2.749-59.865S1179.213,2216.672,1178.73,2207.644Z" transform="translate(-30.089 -114.96)" fill="#fff"/>
        <path id="Path_591" data-name="Path 591" d="M1918.74,2179.827s1.39-3.072,6.031-2.484,3.874,6.922,5.225,8.433,5.482,1.752,6.8,5.723-3.325,7.039-7.747,4.94-8.113-9.41-8.405-12.735S1918.74,2179.827,1918.74,2179.827Z" transform="translate(-482.033 -112.017)" fill="#311e69"/>
        <path id="Path_592" data-name="Path 592" d="M1887.747,2173.069s-1.156-3.671,2.386-8.039c3.064-3.776,11.049-3.707,12.9,3.936,1.219,5.026-4.45,14.35-7.253,13.536S1888.175,2175.732,1887.747,2173.069Z" transform="translate(-462.996 -103.048)" fill="#311e69"/>
        <path id="Path_593" data-name="Path 593" d="M1985.283,2725.522c-1.783,3.037-17.519,12.248-18.422,10.694-1.215-2.087,8.2-14.381,8.23-15.3,2.457-.872,4.816-1.148,7.67-3.843C1984.5,2721.792,1985.547,2725.07,1985.283,2725.522Z" transform="translate(-511.354 -441.666)" fill="#1e1240"/>
        <path id="Path_594" data-name="Path 594" d="M1899.1,2527.192c-45.242-42.482-30.912-113.886-30.919-113.875s29.362-7.417,29.467-4.878c.3,7.062-2.063,64.836-2.063,64.836s3.079,4.621,5.68,8.522a62.562,62.562,0,0,1,5.879,11.088c4.064,9.967,10.539,25.706,14.1,35.381-2.854,2.694-12.24,8.172-14.7,9.044C1906.573,2536.684,1899.1,2527.192,1899.1,2527.192Z" transform="translate(-449.843 -252.867)" fill="#00a6fe"/>
        <g id="Group_731" data-name="Group 731" transform="translate(1428.593 2155.043)">
          <path id="Path_595" data-name="Path 595" d="M1916.665,2508c7.249,8.4,13.875,17.309,18.707,24.13a41.183,41.183,0,0,0,5.341-3.866c-3.566-9.675-10.044-25.415-14.1-35.381a62.571,62.571,0,0,0-5.879-11.088l-5.68-8.522s2.359-57.778,2.063-64.836c-.066-1.53-10.729.553-19.213,2.449a44.71,44.71,0,0,0,1.869,10.247C1907.388,2445.591,1902.116,2491.137,1916.665,2508Z" transform="translate(-1897.9 -2407.909)" fill="#0385cb"/>
        </g>
        <path id="Path_596" data-name="Path 596" d="M1787.937,2221.113c-3.056-2.378-20.412,21.918-29.818,24.823-6.992,2.157-26.014-4.758-28.724.144s5.618,8.168,17.846,12.914,24.671-4.851,30.993-10.333S1793.7,2225.6,1787.937,2221.113Z" transform="translate(-366.09 -138.693)" fill="#ad263d"/>
        <path id="Path_597" data-name="Path 597" d="M1909.39,2562.31s.132-3.251.331-8.3c-1.082-.195-1.771-.3-1.771-.3l-19.31,8.981a64.63,64.63,0,0,0,21.953,1.425C1909.865,2563.026,1909.39,2562.31,1909.39,2562.31Z" transform="translate(-463.651 -341.905)" fill="#311e69"/>
        <g id="Group_732" data-name="Group 732" transform="translate(1398.534 2082.257)">
          <path id="Path_598" data-name="Path 598" d="M1844,2221.113c-2.437-1.9-13.969,13.17-23.312,20.821a35.75,35.75,0,0,0,7.339,11.656,74.815,74.815,0,0,0,6.276-4.933C1840.627,2243.179,1849.764,2225.6,1844,2221.113Z" transform="translate(-1820.69 -2220.949)" fill="#beced3"/>
        </g>
        <path id="Path_599" data-name="Path 599" d="M1788.932,2745.669c6.369-.716,9.515,1.211,9.515,1.211,1.032,2.313,2.044,4.936,1.086,5.474-3.068,1.729-21.3,1.8-21.3,0C1778.23,2750.146,1787.036,2746.826,1788.932,2745.669Z" transform="translate(-396.226 -459.034)" fill="#1e1240"/>
        <path id="Path_600" data-name="Path 600" d="M1792.745,2521.9c-.977-1.153-18.271-74.643.249-142.123.062-.23.132-.459.2-.689,7.557,16.156,25.181,16.628,25.181,16.628-3.3,3.589-11.792,61-11.792,61s13.692,18.765-1,65.95C1805.581,2522.665,1797.289,2525.5,1792.745,2521.9Z" transform="translate(-400.039 -235.267)" fill="#00a6fe"/>
        <g id="Group_733" data-name="Group 733" transform="translate(1393.961 2155.413)">
          <path id="Path_601" data-name="Path 601" d="M1833.316,2413.894a32.34,32.34,0,0,1-15.133-5.034c-4.921,14.07-10.994,35.669-8.767,51.65a381.774,381.774,0,0,1,4.006,51.46c.129,6.618-.128,20.194-.354,29.907a22.328,22.328,0,0,0,7.452-1.036c14.7-47.185,1-65.95,1-65.95S1830.019,2417.483,1833.316,2413.894Z" transform="translate(-1808.943 -2408.86)" fill="#0385cb"/>
        </g>
        <path id="Path_602" data-name="Path 602" d="M1793.36,2534.577s13.229,3.632,20.8,3.932a21.882,21.882,0,0,0-2.145-4.255s1.748-11.816,3.967-25.06l-1.106-3.134Z" transform="translate(-405.466 -312.805)" fill="#311e69"/>
        <g id="Group_734" data-name="Group 734" transform="translate(1380.361 2080.041)">
          <path id="Path_603" data-name="Path 603" d="M1846.52,2351.211c.214-3.446-1.869-59.62-1.916-60.784-.214-5.05-1.008-14.65-10.34-27.926h0c-6-7.934,12.676-29.825,3.185-40.255-3.586-3.94-11.123-8.055-18.866-6.739-9.5,1.616-15.082,15.308-18.543,23.355-3.048,7.035-10.5,16.3-15.3,32.235-9.939,33.006-10.021,80.627-10.722,84.59,1.9,1.253,10.893,1.705,22.023,1.491,2-.039,1.635-23.145,3.738-23.223,1.826-.07,6.1,22.892,7.973,22.794C1823.846,2355.894,1840.777,2353.932,1846.52,2351.211Z" transform="translate(-1774.01 -2215.257)" fill="#fff"/>
        </g>
        <g id="Group_735" data-name="Group 735" transform="translate(1419.615 2080.314)">
          <path id="Path_604" data-name="Path 604" d="M1906.178,2290.856c-.214-5.049-1.008-14.65-10.34-27.926h0c-6-7.934,12.676-29.825,3.185-40.255a23.054,23.054,0,0,0-12.7-6.716c1.312,5.657,3.216,15.989,2.262,25.157-1.4,13.458-19.742,67.644-11.73,93.159,2.811,8.95,5.4,16.168,7.576,21.774,10.558-1.04,19.731-2.55,23.663-4.411C1908.312,2348.195,1906.225,2292.021,1906.178,2290.856Z" transform="translate(-1874.838 -2215.96)" fill="#beced3"/>
        </g>
        <path id="Path_605" data-name="Path 605" d="M1875.83,2221.634s-4.232.335-8.993,8.795c-4.94,8.783-9.842,33.419-7.245,32.6s21.011-38.562,21.21-39.975S1877.422,2220.953,1875.83,2221.634Z" transform="translate(-445.473 -138.949)" fill="#4cb4d4"/>
        <path id="Path_606" data-name="Path 606" d="M1900.842,2200.31l.121,9.838c.012,1.62-3.975,5.781-6.533,3.729-.748-.6.234-2.826.942-4.508l1.931-8.452Z" transform="translate(-467.024 -126.088)" fill="#ff6161"/>
        <path id="Path_607" data-name="Path 607" d="M1825.93,2337.486c7.576-9.429-9.85-7.856-23.211-5.544a92.938,92.938,0,0,0-3.379,9.336q-.742,2.464-1.409,5.03C1804.034,2347.484,1817.158,2348.407,1825.93,2337.486Z" transform="translate(-408.256 -205.397)" fill="#311e69"/>
        <path id="Path_608" data-name="Path 608" d="M1899.28,2208.791c2.11-.646,4.232-3.811,4.232-3.811h-3.36Z" transform="translate(-470.149 -128.94)" fill="#311e69"/>
        <path id="Path_609" data-name="Path 609" d="M1896.106,2178.5l.592,3.776a5.652,5.652,0,0,1-4.43,6.494c-2.756.49-5.415-1.1-5.82-4.578-.362-3.095,1.834-5.766,2.632-7.163C1890.885,2173.839,1895.109,2174.209,1896.106,2178.5Z" transform="translate(-462.288 -110.581)" fill="#ff6161"/>
        <path id="Path_610" data-name="Path 610" d="M1910.5,2190.147a4.369,4.369,0,0,0,.249-.973c.105-.631.4-1.542,1.261-.931,1.25.892.518,4.22-1.082,4.22C1909.743,2192.463,1910.191,2190.933,1910.5,2190.147Z" transform="translate(-476.79 -118.596)" fill="#ff6161"/>
        <path id="Path_611" data-name="Path 611" d="M1887.348,2186.862a4.816,4.816,0,0,1-.024-1c.043-.639-.039-1.592-1.016-1.2-1.421.584-1.468,3.99.09,4.356C1887.554,2189.292,1887.468,2187.7,1887.348,2186.862Z" transform="translate(-461.573 -116.476)" fill="#ff6161"/>
        <path id="Path_612" data-name="Path 612" d="M1896.238,2197.019a11.129,11.129,0,0,1-3.628-.479,4.411,4.411,0,0,0,1.036,2.211C1894.4,2199.366,1895.471,2198.58,1896.238,2197.019Z" transform="translate(-466.076 -123.786)" fill="#fff"/>
        <path id="Path_613" data-name="Path 613" d="M1891.977,2201.823a7.37,7.37,0,0,1-3.971-1.106,7.605,7.605,0,0,1-1.526-2.417c0,.058,0,.113.012.171.409,3.48,3.068,5.069,5.82,4.578a5.419,5.419,0,0,0,3.987-3.2A7.008,7.008,0,0,1,1891.977,2201.823Z" transform="translate(-462.332 -124.861)" fill="#ad263d"/>
        <g id="Group_736" data-name="Group 736" transform="translate(1201.592 1993.84)">
          <path id="Path_614" data-name="Path 614" d="M1457.461,1993.84a66.843,66.843,0,0,0-44.312,16.717,66.823,66.823,0,0,0-44.312-16.717c-37.055,0-58.4,18.473-53.258,67.095,4.543,42.945,59.479,84.656,85.081,101.911a23.1,23.1,0,0,0,25.921-.066c25.372-17.293,79.6-58.954,84.135-101.844C1515.862,2012.313,1494.516,1993.84,1457.461,1993.84Z" transform="translate(-1314.82 -1993.84)" fill="#ed4b64"/>
          <path id="Path_615" data-name="Path 615" d="M1519.122,2061.282c4.824-45.573-13.634-64.661-46.48-66.873a88.462,88.462,0,0,1,17.138,23.678c10.4,20.431,7.058,44.947-5.945,57.2s-12.5,26.921-31.324,36.031c-10.107,4.894-42.221,9.273-63.022,6.124s-41.6-39.18-55.719-39.554a11.388,11.388,0,0,0-5.189,1.133c14.634,36.307,58.44,69.31,80.491,84.17a23.1,23.1,0,0,0,25.921-.066C1460.359,2145.834,1514.583,2104.173,1519.122,2061.282Z" transform="translate(-1323.223 -1994.188)" fill="#de3953"/>
          <path id="Path_616" data-name="Path 616" d="M1331.047,2068.846s-5.7-43.833,17.087-53.243,38.137-5.2,47.547,0,15.6,21.79.249,24.021S1331.047,2068.846,1331.047,2068.846Z" transform="translate(-1324.343 -2003.718)" fill="#ff6161"/>
          <path id="Path_617" data-name="Path 617" d="M1598.118,2026.269a4.5,4.5,0,0,1-1.366-8.047c6.354-4.423,16.628-9.663,28.49-8.471,19.875,2,14.486,16.857,2.414,19.828C1619.935,2031.478,1606.675,2028.593,1598.118,2026.269Z" transform="translate(-1485.801 -2003.451)" fill="#ff6161"/>
        </g>
        <path id="Path_618" data-name="Path 618" d="M1810.689,2238.975c2.363,5.688-5.053,30.511-30.5,44.113-16.678,8.915-48.754-9.1-49.949-19.843s24.683-.261,37.693,3.048c9.706,2.468,26.419-18.66,31.554-25.364C1802.541,2236.935,1809.147,2235.26,1810.689,2238.975Z" transform="translate(-366.893 -148.437)" fill="#ff6161"/>
        <path id="Path_619" data-name="Path 619" d="M1808.678,2277.32c-2.492,4.049-4.691,7.915-6.233,9.916-5.061,6.571-7.521,6.33-17.71,8.292s-9.277,7.487-22.055,6.093-11.259-6.618-20.326-11.995c-4.855-2.877-9-2.32-11.8-1.184,2.114,10.792,33.43,28.1,49.848,19.33A62,62,0,0,0,1808.678,2277.32Z" transform="translate(-367.108 -173.117)" fill="#ad263d"/>
        <path id="Path_620" data-name="Path 620" d="M1890.964,2301.343l-15.144-3.453s1.133,8.148,5.182,14.3A62.36,62.36,0,0,0,1890.964,2301.343Z" transform="translate(-455.823 -185.679)" fill="#311e69"/>
        <path id="Path_621" data-name="Path 621" d="M1723.359,2286.916c-.222-.728-1.989-2.118-3.009-2.7a5.663,5.663,0,0,1-2.9-3.329c-.257-.9-1.355.385-.825,1.655s2.281,2.947,1.1,2.714-4.785-3.2-6.42-1.02c-1.363,1.822,3.5,6.564,8.573,7.35C1721.319,2291.806,1724.6,2290.973,1723.359,2286.916Z" transform="translate(-355.214 -175.11)" fill="#ff6161"/>
        <path id="Path_622" data-name="Path 622" d="M1909.632,2381.637s-9.106-5.474-14.062-9.647c0,0-6.657,26.314,6.069,26.166S1909.632,2381.637,1909.632,2381.637Z" transform="translate(-466.821 -230.931)" fill="#fff"/>
        <g id="Group_737" data-name="Group 737" transform="translate(1418.463 2087.976)">
          <path id="Path_623" data-name="Path 623" d="M1897.213,2238.2c-1.542-3.714-6.346-3.659-11.2,1.955-2.776,3.2-8.071,10.36-14.128,16.184.471,1.845,4.279,11.045,13.93,13.731C1896.948,2257.605,1898.891,2242.239,1897.213,2238.2Z" transform="translate(-1871.88 -2235.64)" fill="#fff"/>
        </g>
        <g id="Group_738" data-name="Group 738" transform="translate(1182.718 2067.133)">
          <path id="Path_624" data-name="Path 624" d="M1301.433,2296.645l-9.6-48.127s-2.4-3.06-1.947-24.153c.269-12.532,2.2-21.661-3.815-33.929-2.608-5.314-9.417-8.76-19.73-8.292,4.5,14.545,12.614,41.583,14.7,53.753,2.309,13.521,1.947,51.207,9.4,70.205l8.094-3.745A5.178,5.178,0,0,0,1301.433,2296.645Z" transform="translate(-1266.34 -2182.101)" fill="#beced3"/>
        </g>
        <g id="Group_739" data-name="Group 739" transform="translate(1423.314 2087.986)">
          <path id="Path_625" data-name="Path 625" d="M1904.822,2238.217a3.942,3.942,0,0,0-4.555-2.484c-.891,2.562-2.071,5.828-3.387,9.157-2.834,7.167-5.8,12.933-10.013,16.9-.814.767-1.67,1.682-2.527,2.659a19.431,19.431,0,0,0,9.079,5.634C1904.557,2257.62,1906.5,2242.254,1904.822,2238.217Z" transform="translate(-1884.34 -2235.664)" fill="#beced3"/>
        </g>
        <path id="Path_626" data-name="Path 626" d="M1798.564,2381.04l-6.046,3.515s-4.5,12.793-2.811,15.323S1798.949,2389.332,1798.564,2381.04Z" transform="translate(-403.004 -236.458)" fill="#d8e7eb"/>
        <path id="Path_627" data-name="Path 627" d="M1241.925,2189.823a4.936,4.936,0,0,1,3.422-4.423c3.06-.989,8.078-2.087,12.388-.549,6.739,2.4,2.352,46.184,2.352,46.184S1241.057,2206.342,1241.925,2189.823Z" transform="translate(-68.694 -116.181)" fill="#4cb4d4"/>
        <path id="Path_628" data-name="Path 628" d="M1195.48,2292.28l53.371,24.994,1.518,7.619S1199.875,2331.126,1195.48,2292.28Z" transform="translate(-40.349 -182.253)" fill="#311e69"/>
        <path id="Path_629" data-name="Path 629" d="M1193.659,2210c4.606,3.472,12.143,29.716,23.456,40.045,5.466,4.991,32.216-1.105,43.07-2.328,3.177-.358,12.571-2.172,10.052,6.833-5.022,17.943-40.259,20.517-60.558,12.407-16.2-6.467-28.046-33.983-28.7-40.75C1179.371,2209.657,1188.991,2206.484,1193.659,2210Z" transform="translate(-31.384 -131.223)" fill="#fff"/>
        <path id="Path_630" data-name="Path 630" d="M1245.266,2143.247s-.249-4.282.592-5.949,4.341-8.211,10.936-4.318c4.477,2.644,3.348,7.677,1.916,11.43-.876,2.293-1.277,4.259-2.3,4.466C1253.694,2149.413,1245.266,2143.247,1245.266,2143.247Z" transform="translate(-70.731 -84.228)" fill="#311e69"/>
        <path id="Path_631" data-name="Path 631" d="M1256.926,2162.29l-5.01,11.041c-.187,1.658,8.269,7.183,11.107,5.353.829-.537.782-2.149.237-3.948l-3.325-9.83Z" transform="translate(-74.811 -102.87)" fill="#ff6161"/>
        <path id="Path_632" data-name="Path 632" d="M1258.218,2179.276c2.5-1.978,1.873-2.916,1.873-2.916l-4.874,1.183-1.156,2.546C1255.3,2180.1,1257.268,2180.031,1258.218,2179.276Z" transform="translate(-76.123 -111.462)" fill="#311e69"/>
        <path id="Path_633" data-name="Path 633" d="M1252.485,2146.521l2.659,6.42a4.241,4.241,0,0,1-2.608,5.306,11.724,11.724,0,0,1-5.155.6c-1.9-.086-3-1.818-3.192-4.282a22.987,22.987,0,0,1,.9-7.81C1246.128,2143.118,1250.445,2142.46,1252.485,2146.521Z" transform="translate(-70.063 -91.543)" fill="#ff6161"/>
        <path id="Path_634" data-name="Path 634" d="M1249.678,2165.268a11.428,11.428,0,0,1-3.769-.148s-.039,1.285.911,1.6A2.076,2.076,0,0,0,1249.678,2165.268Z" transform="translate(-71.145 -104.598)" fill="#fff"/>
        <path id="Path_635" data-name="Path 635" d="M1247.695,2171.1c2.075-.584,5.155,1.713,7.856-1.277A6.159,6.159,0,0,0,1256.6,2167l.058.14a4.241,4.241,0,0,1-2.608,5.306,11.721,11.721,0,0,1-5.155.6,2.817,2.817,0,0,1-2.266-1.292C1246.519,2171.6,1247.064,2171.275,1247.695,2171.1Z" transform="translate(-71.576 -105.746)" fill="#ad263d"/>
        <path id="Path_636" data-name="Path 636" d="M1243.118,2132.617c-.374,2.04-.381,4.107,1.635,4.878,1.46.561,4.4.572,5.341.993,1.37.615.755,3.441,1.736,3.578s1.257-1.269,1.413-2.048,2.371-5.462-.6-7.152C1250.729,2131.784,1244.036,2127.622,1243.118,2132.617Z" transform="translate(-69.323 -83.28)" fill="#311e69"/>
        <path id="Path_637" data-name="Path 637" d="M1266.526,2155.207a6.161,6.161,0,0,0,.019-1.285c-.062-.818.035-2.044,1.293-1.538,1.826.732,1.916,5.1-.078,5.583C1266.281,2158.325,1266.378,2156.281,1266.526,2155.207Z" transform="translate(-83.688 -96.748)" fill="#ff6161"/>
        <path id="Path_638" data-name="Path 638" d="M1185.651,2212.15c.623,5.372.3,11.664.817,13.217,1.047,3.153,13.011,20.906,18.582,27.423s5.112,3.087,10.811,7.156,9.452,4.423,25.165,5.361,12.2-3.422,21.735-8.97c3.78-2.2,6.26-2.889,7.88-2.924a9.218,9.218,0,0,1-.4,3.235c-5.022,17.943-40.259,20.517-60.558,12.407-16.2-6.467-28.046-33.983-28.7-40.75C1180.115,2219.368,1182.521,2214.338,1185.651,2212.15Z" transform="translate(-31.388 -133.319)" fill="#beced3"/>
        <path id="Path_639" data-name="Path 639" d="M1398.545,2316.095c2.659.977,4.1,1.406,8.277.713,7-1.164,8.39-5.61,5.6-6.1-2.5-.444-7.646-1.055-7.965-1.324-.755-.635-.269-1.1,2.433-.308,1.3.381,1.962-2.118.323-2.289-5.879-.6-10.223-2.417-11.913,4.594C1394.917,2312.969,1397.007,2315.534,1398.545,2316.095Z" transform="translate(-162.347 -190.706)" fill="#ff6161"/>
        <path id="Path_640" data-name="Path 640" d="M1193.9,2470.51s-19.871,34.715-18.605,47.578-3.161,14.338-16.445,25.091a45.993,45.993,0,0,1-15.861,8.067,43.468,43.468,0,0,0-2.445,14.4c.062,5.766,12.886,10.971,14.915,9.164,10.815-9.643,27.828-41.711,31.9-60.636C1189.779,2502.94,1193.03,2483.233,1193.9,2470.51Z" transform="translate(-6.8 -291.096)" fill="#0385cb"/>
        <path id="Path_641" data-name="Path 641" d="M1209.07,2385.936l16.227-1.545s1.884,16.3-8.02,16.869C1209.175,2401.714,1209.07,2385.936,1209.07,2385.936Z" transform="translate(-48.648 -238.503)" fill="#d8e7eb"/>
      </g>
    </g>
  </g>
</svg>
