<svg xmlns="http://www.w3.org/2000/svg" xmlns:xlink="http://www.w3.org/1999/xlink" width="14" height="14" viewBox="0 0 14 14">
  <defs>
    <clipPath id="clip-path">
      <rect id="Rectangle_1" data-name="Rectangle 1" width="12" height="12"/>
    </clipPath>
    <clipPath id="clip-custom_1">
      <rect width="14" height="14"/>
    </clipPath>
  </defs>
  <g id="custom_1" data-name="custom – 1" clip-path="url(#clip-custom_1)">
    <rect width="14" height="14" fill="#fff"/>
    <g id="custom_1-2" data-name="custom – 1" transform="translate(1 1)" clip-path="url(#clip-path)">
      <g id="round-add-button" transform="translate(0.3 0.3)">
        <g id="Group_2" data-name="Group 2">
          <path id="Path_2" data-name="Path 2" d="M5.7,0a5.7,5.7,0,1,0,5.7,5.7A5.7,5.7,0,0,0,5.7,0Zm0,10.652A4.952,4.952,0,1,1,10.652,5.7,4.952,4.952,0,0,1,5.7,10.652Z" fill="#a4aac5"/>
          <path id="Path_3" data-name="Path 3" d="M111.8,109.444h-1.683v-1.683a.333.333,0,0,0-.665,0v1.683h-1.683a.333.333,0,0,0,0,.665h1.683v1.683a.333.333,0,0,0,.665,0v-1.683h1.683a.333.333,0,0,0,0-.665Z" transform="translate(-104.08 -104.076)" fill="#a4aac5"/>
        </g>
      </g>
    </g>
  </g>
</svg>
