<?xml version="1.0"?>
<svg xmlns="http://www.w3.org/2000/svg" id="Capa_1" enable-background="new 0 0 387.882 387.882" height="512px" viewBox="0 0 387.882 387.882" width="512px"><g><path d="m360.176 27.706h-55.412v-27.706h-27.706v27.706h-166.234v-27.706h-27.706v27.706h-55.412c-15.274 0-27.706 12.432-27.706 27.706v304.765c0 15.273 12.432 27.706 27.706 27.706h235.5c3.68 0 7.197-1.461 9.794-4.058l110.824-110.825c2.597-2.597 4.058-6.115 4.058-9.794v-207.794c0-15.274-12.432-27.706-27.706-27.706zm-83.117 312.882v-63.528h63.529zm83.117-91.234h-83.118c-15.273 0-27.706 12.432-27.706 27.706v83.118h-221.646v-221.648h332.471v110.824zm0-138.53h-332.47v-55.411h55.412v27.706h27.706v-27.706h166.235v27.706h27.706v-27.706h55.412v55.411z" data-original="#000000" class="active-path" data-old_color="#000000" fill="#9199BE"/></g> </svg>
