<svg xmlns="http://www.w3.org/2000/svg" width="45.357" height="45.357" viewBox="0 0 45.357 45.357">
  <g id="Group_5" data-name="Group 5" transform="translate(-1544.596 -908.095)">
    <circle id="Icon.BG" cx="22.679" cy="22.679" r="22.679" transform="translate(1544.596 908.095)" fill="#f0f0f7"/>
    <path id="time-countdown" d="M0,14.108A10.907,10.907,0,0,1,10.974,3.134a10.73,10.73,0,0,1,6.587,2.2l1.41-1.413L17.715,2.664a1.516,1.516,0,0,1,0-2.194,1.518,1.518,0,0,1,2.2,0l4.7,4.7a1.515,1.515,0,0,1,0,2.194,1.518,1.518,0,0,1-2.2,0L21.165,6.114l-1.411,1.41a10.734,10.734,0,0,1,2.194,6.584A10.907,10.907,0,0,1,10.974,25.083,10.907,10.907,0,0,1,0,14.108Zm3.137,0a7.764,7.764,0,0,0,7.837,7.84,7.765,7.765,0,0,0,7.841-7.84,7.762,7.762,0,0,0-7.841-7.838A7.762,7.762,0,0,0,3.137,14.108Zm6.27,1.567V9.4h3.137v3.137h3.135v3.134Z" transform="translate(1556.311 918.231)" fill="#1c2afe"/>
  </g>
</svg>
