<svg xmlns="http://www.w3.org/2000/svg" xmlns:xlink="http://www.w3.org/1999/xlink" width="300" height="300" viewBox="0 0 300 300">
  <defs>
    <clipPath id="clip-custom_1">
      <rect width="300" height="300"/>
    </clipPath>
  </defs>
  <g id="custom_1" data-name="custom – 1" clip-path="url(#clip-custom_1)">
    <g id="completed" transform="translate(12 -17.985)">
      <path id="Path_1" data-name="Path 1" d="M234.719,73.084l-121.3,121.3a8.373,8.373,0,0,1-11.84,0L49.359,142.169,8.1,183.428,86.866,262.2a29.176,29.176,0,0,0,20.63,8.545h0a29.176,29.176,0,0,0,20.63-8.545L275.979,114.343Z" transform="translate(-3.723 -3.723)" fill="#a5eb78"/>
      <g id="Group_1" data-name="Group 1" transform="translate(86.908 96.976)" opacity="0.1">
        <path id="Path_2" data-name="Path 2" d="M332.555,124.2,176.468,280.283a31.939,31.939,0,0,1-15.616,8.576,29.171,29.171,0,0,0,16.865,5.379h0a29.176,29.176,0,0,0,20.63-8.545L346.2,137.84Z" transform="translate(-160.852 -124.196)"/>
      </g>
      <path id="Path_3" data-name="Path 3" d="M103.774,330.173a33.333,33.333,0,0,1-23.726-9.828L1.281,241.578a4.376,4.376,0,0,1,0-6.189l41.26-41.26a4.377,4.377,0,0,1,6.189,0L64.22,209.618a4.376,4.376,0,0,1-6.189,6.189L45.637,203.412,10.565,238.484l75.673,75.673a24.8,24.8,0,0,0,35.072,0l101.009-101.01a4.376,4.376,0,0,1,6.189,6.189L127.5,320.346A33.337,33.337,0,0,1,103.774,330.173Z" transform="translate(0 -58.779)" fill="#f4f9ff"/>
      <path id="Path_4" data-name="Path 4" d="M162.59,197.491a12.663,12.663,0,0,1-9.014-3.734l-24.35-24.35a4.376,4.376,0,0,1,6.189-6.189l24.35,24.35a4,4,0,0,0,5.651,0l121.3-121.3a4.377,4.377,0,0,1,6.189,0l41.26,41.26a4.376,4.376,0,0,1,0,6.189L299.7,148.179a4.376,4.376,0,0,1-6.189-6.189l31.37-31.37L289.813,75.55,171.6,193.757A12.668,12.668,0,0,1,162.59,197.491Z" transform="translate(-58.816)" fill="#f4f9ff"/>
    </g>
  </g>
</svg>
