<svg xmlns="http://www.w3.org/2000/svg" xmlns:xlink="http://www.w3.org/1999/xlink" width="40" height="40" viewBox="0 0 40 40">
  <defs>
    <clipPath id="clip-consulta2">
      <rect width="40" height="40"/>
    </clipPath>
  </defs>
  <g id="consulta2" clip-path="url(#clip-consulta2)">
    <circle id="Ellipse_1" data-name="Ellipse 1" cx="20" cy="20" r="20" fill="#0273b2"/>
    <g id="_008-stethoscope" data-name="008-stethoscope" transform="translate(28 -20.508)">
      <g id="Group_46" data-name="Group 46">
        <g id="Group_45" data-name="Group 45">
          <path id="Path_41" data-name="Path 41" d="M479.426,267.581A56,56,0,0,0,432,220.155V205.611c0-40.128-30.5-72.8-68-72.8-36.416,0-66.9,31.68-68,70.624h.464l-.464.08V361.171c0,50.4-37.68,91.328-84,91.328s-84-40.984-84-91.328V347.515c11.6,0,24-8.408,24-32V295.4c51.344-13.128,88-57.216,88-107.2v-16.68H224L223.664,67.4a40.04,40.04,0,0,0-32.912-39.16,23.873,23.873,0,1,0-.544,16.312,24,24,0,0,1,17.432,22.9L208,171.515H192v16.912a63.616,63.616,0,0,1-46.048,59.688,72.744,72.744,0,0,1-44,0A63.582,63.582,0,0,1,56,188.427V171.515H32v-104A24,24,0,0,1,49.76,44.443a24.112,24.112,0,1,0-.5-16.248A40,40,0,0,0,16,67.515v104H0v16.64C0,238.2,36.68,282.3,88,295.395v20.12c0,23.592,12.4,32,24,32v13.656c0,59.2,44.856,107.328,100,107.328s100-48.184,100-107.328V203.9c.8-30.36,24.144-55.064,52-55.064,28.672,0,52,25.472,52,56.8v14.52a56,56,0,1,0,63.426,47.426ZM168,43.515a8,8,0,1,1,8-8A8,8,0,0,1,168,43.515Zm-96-16a8,8,0,1,1-8,8A8,8,0,0,1,72,27.515ZM16,188.155v-.64H40v.912a79.488,79.488,0,0,0,57.1,74.9,89.019,89.019,0,0,0,53.744,0A79.5,79.5,0,0,0,208,188.427v-.912h16v.64c0,44.5-34.3,83.664-81.6,93.136a114.119,114.119,0,0,1-33.752,1.656A104.5,104.5,0,0,1,97.6,281.275C50.3,271.819,16,232.659,16,188.155Zm96,143.36c-7.2,0-8-11.2-8-16V298.539c.64.08,1.3.112,1.944.176.8.088,1.6.152,2.4.224,3.784.336,7.6.56,11.448.568h.4c3.84,0,7.648-.232,11.408-.568.8-.072,1.648-.136,2.472-.224.632-.072,1.288-.1,1.92-.176v16.976c0,4.8-.8,16-8,16Zm312-16a40,40,0,1,1,40-40A40,40,0,0,1,424,315.515Z" fill="#fff"/>
        </g>
      </g>
      <g id="Group_48" data-name="Group 48">
        <g id="Group_47" data-name="Group 47">
          <path id="Path_42" data-name="Path 42" d="M424,251.515a24,24,0,1,0,24,24A24,24,0,0,0,424,251.515Zm0,32a8,8,0,1,1,8-8A8,8,0,0,1,424,283.515Z" fill="#fff"/>
        </g>
      </g>
    </g>
    <g id="_008-stethoscope-2" data-name="008-stethoscope" transform="translate(10.367 -2.473)">
      <g id="Group_50" data-name="Group 50" transform="translate(0 11.508)">
        <g id="Group_49" data-name="Group 49">
          <path id="Path_43" data-name="Path 43" d="M24.083,24.371A2.813,2.813,0,0,0,21.7,21.989v-.731A3.547,3.547,0,0,0,18.285,17.6a3.561,3.561,0,0,0-3.416,3.548h.023l-.023,0v7.92a4.419,4.419,0,0,1-4.22,4.588,4.421,4.421,0,0,1-4.22-4.588v-.686c.583,0,1.206-.422,1.206-1.607V25.769a5.7,5.7,0,0,0,4.421-5.385v-.838h-.8l-.017-5.23a2.011,2.011,0,0,0-1.653-1.967,1.2,1.2,0,1,0-.027.819,1.206,1.206,0,0,1,.876,1.15l.018,5.228h-.8v.85a3.2,3.2,0,0,1-2.313,3,3.654,3.654,0,0,1-2.21,0,3.194,3.194,0,0,1-2.308-3v-.85H1.607V14.321A1.206,1.206,0,0,1,2.5,13.162a1.211,1.211,0,1,0-.025-.816A2.009,2.009,0,0,0,.8,14.321v5.224H0v.836a5.7,5.7,0,0,0,4.421,5.387v1.011c0,1.185.623,1.607,1.206,1.607v.686a5.222,5.222,0,0,0,5.023,5.391,5.224,5.224,0,0,0,5.023-5.391v-7.9a2.75,2.75,0,0,1,2.612-2.766A2.744,2.744,0,0,1,20.9,21.26v.729a2.813,2.813,0,1,0,3.186,2.382ZM8.439,13.116a.4.4,0,1,1,.4-.4A.4.4,0,0,1,8.439,13.116Zm-4.822-.8a.4.4,0,1,1-.4.4A.4.4,0,0,1,3.617,12.312ZM.8,20.382v-.032H2.009V20.4a3.993,3.993,0,0,0,2.869,3.763,4.472,4.472,0,0,0,2.7,0A3.994,3.994,0,0,0,10.448,20.4v-.046h.8v.032a4.926,4.926,0,0,1-4.1,4.679,5.733,5.733,0,0,1-1.7.083,5.249,5.249,0,0,1-.555-.084A4.925,4.925,0,0,1,.8,20.382Zm4.822,7.2c-.362,0-.4-.563-.4-.8v-.853c.032,0,.065.006.1.009l.121.011c.19.017.382.028.575.029h.02c.193,0,.384-.012.573-.029l.124-.011c.032,0,.065,0,.1-.009v.853c0,.241-.04.8-.4.8Zm15.673-.8a2.009,2.009,0,1,1,2.009-2.009A2.009,2.009,0,0,1,21.3,26.779Z" transform="translate(0 -11.508)" fill="#fff"/>
        </g>
      </g>
      <g id="Group_52" data-name="Group 52" transform="translate(20.093 23.564)">
        <g id="Group_51" data-name="Group 51">
          <path id="Path_44" data-name="Path 44" d="M401.206,251.515a1.206,1.206,0,1,0,1.206,1.206A1.206,1.206,0,0,0,401.206,251.515Zm0,1.607a.4.4,0,1,1,.4-.4A.4.4,0,0,1,401.206,253.122Z" transform="translate(-400 -251.515)" fill="#fff"/>
        </g>
      </g>
    </g>
  </g>
</svg>
