<svg xmlns="http://www.w3.org/2000/svg" xmlns:xlink="http://www.w3.org/1999/xlink" width="40" height="40" viewBox="0 0 40 40">
  <defs>
    <clipPath id="clip-consulta">
      <rect width="40" height="40"/>
    </clipPath>
  </defs>
  <g id="consulta" clip-path="url(#clip-consulta)">
    <circle id="Ellipse_1" data-name="Ellipse 1" cx="20" cy="20" r="20" fill="#0273b2"/>
    <path id="stethoscope" d="M8.283,22.087A4.008,4.008,0,0,0,10.9,23.249c3.923,0,4.8-2.906,4.94-5.231.291-3.342,1.162-3.2,1.6-3.2,1.017,0,1.308.581,1.308,1.6a3,3,0,0,0-1.453,2.47A2.906,2.906,0,1,0,20.2,15.984h-.291c-.291-1.308-1.017-2.616-2.616-2.616-2.325,0-2.906,2.034-3.051,4.214C14.095,20.634,13.078,21.8,10.9,21.8a2.22,2.22,0,0,1-1.453-.581c-.872-.727-.727-3.342-.727-3.342,2.906,0,5.812-2.616,6.829-6.975l-.291-.145a23.746,23.746,0,0,0,.727-5.231,4.418,4.418,0,0,0-1.453-3.633A4.755,4.755,0,0,0,11.479.727,1.526,1.526,0,0,0,10.172,0,1.456,1.456,0,0,0,8.718,1.453a1.373,1.373,0,0,0,1.453,1.453,1.151,1.151,0,0,0,1.162-.727,3.49,3.49,0,0,1,2.18.872,2.818,2.818,0,0,1,1.017,2.47,25.032,25.032,0,0,1-.727,5.086l-.291-.145c-.436,1.6-1.889,5.231-4.8,5.231H7.265c-2.906,0-4.359-3.633-4.8-5.231l-.291.145a25.032,25.032,0,0,1-.727-5.086A2.818,2.818,0,0,1,2.47,3.051,4.09,4.09,0,0,1,4.65,2.18a1.151,1.151,0,0,0,1.162.727A1.373,1.373,0,0,0,7.265,1.453,1.373,1.373,0,0,0,5.812,0,1.526,1.526,0,0,0,4.5.727,4.755,4.755,0,0,0,1.453,1.889,4.418,4.418,0,0,0,0,5.522,26.21,26.21,0,0,0,.727,10.9l-.291.145c1.017,4.214,3.923,6.829,6.829,6.829,0,0-.145,3.2,1.017,4.214Zm12.061-1.744A1.453,1.453,0,1,1,21.8,18.89,1.456,1.456,0,0,1,20.343,20.343Z" transform="translate(8.926 8.683)" fill="#fff"/>
  </g>
</svg>
