<svg id="Group_602" data-name="Group 602" xmlns="http://www.w3.org/2000/svg" width="35" height="35" viewBox="0 0 35 35">
  <path id="Path_263" data-name="Path 263" d="M17.5,0A17.5,17.5,0,1,1,0,17.5,17.5,17.5,0,0,1,17.5,0Z" fill="#0273b2"/>
  <g id="Group_634" data-name="Group 634" transform="translate(9.199 9.939)">
    <path id="Path_537" data-name="Path 537" d="M619.4,924.322c-2.342-3.547.947-9.624,4.312-6.462,1.326.8,3.881.211,3.912-1.666.02-1.228-.535-1.754-.535-2.969a3.828,3.828,0,0,1,3.671-3.967c3.132,0,4.359,4.214,4.359,6.961a7.8,7.8,0,0,1-7.276,7.572c-3.487,0-4.048-1.206-5.907-3.526-1.2-.263-1.567,2.891.079,3.492" transform="translate(-618.607 -908.337)" fill="none" stroke="#fff" stroke-linecap="round" stroke-linejoin="round" stroke-width="1.44"/>
    <path id="Path_538" data-name="Path 538" d="M630.074,907.422c.56,3.3,1.951,3.921,2.913,6.081" transform="translate(-624.322 -907.422)" fill="none" stroke="#fff" stroke-linecap="round" stroke-linejoin="round" stroke-width="1.44"/>
  </g>
</svg>
