<svg id="Search" xmlns="http://www.w3.org/2000/svg" width="27.249" height="27.251" viewBox="0 0 27.249 27.251">
  <path id="Path_5" data-name="Path 5" d="M11.539,23.078A11.539,11.539,0,0,1,3.38,3.38a11.539,11.539,0,0,1,19.7,8.159A11.539,11.539,0,0,1,11.539,23.078Zm0-20.875a9.336,9.336,0,1,0,9.336,9.336A9.347,9.347,0,0,0,11.539,2.2Z" fill="#0157ff"/>
  <path id="Path_6" data-name="Path 6" d="M342.964,344.066a1.079,1.079,0,0,1-.777-.325l-7.238-7.238a1.1,1.1,0,0,1,1.554-1.554l7.238,7.238a1.1,1.1,0,0,1,0,1.554A1.079,1.079,0,0,1,342.964,344.066Z" transform="translate(-316.815 -316.815)" fill="#0157ff"/>
</svg>
