<svg xmlns="http://www.w3.org/2000/svg" width="13.306" height="13.306" viewBox="0 0 13.306 13.306">
  <g id="Search" transform="translate(0 0)">
    <path id="Path_5" data-name="Path 5" d="M5.634,11.269A5.634,5.634,0,0,1,1.65,1.65a5.634,5.634,0,0,1,9.618,3.984,5.634,5.634,0,0,1-5.634,5.634Zm0-10.193a4.558,4.558,0,1,0,4.558,4.558A4.564,4.564,0,0,0,5.634,1.076Z" transform="translate(0 0)" fill="#a4aac5"/>
    <path id="Path_6" data-name="Path 6" d="M338.7,339.235a.527.527,0,0,1-.379-.159l-3.534-3.534a.537.537,0,1,1,.759-.759l3.534,3.534a.535.535,0,0,1,0,.759A.527.527,0,0,1,338.7,339.235Z" transform="translate(-325.929 -325.929)" fill="#a4aac5"/>
  </g>
</svg>
