<svg xmlns="http://www.w3.org/2000/svg" xmlns:xlink="http://www.w3.org/1999/xlink" width="40" height="40" viewBox="0 0 40 40">
  <defs>
    <clipPath id="clip-tele">
      <rect width="40" height="40"/>
    </clipPath>
  </defs>
  <g id="tele" clip-path="url(#clip-tele)">
    <circle id="Ellipse_1" data-name="Ellipse 1" cx="20" cy="20" r="20" fill="#0273b2"/>
    <g id="headphones" transform="translate(-22 6.999)">
      <g id="Group_54" data-name="Group 54" transform="translate(33.989 10.46)">
        <g id="Group_53" data-name="Group 53">
          <path id="Path_45" data-name="Path 45" d="M93.241,210A2.244,2.244,0,0,0,91,212.241v6.077a2.241,2.241,0,1,0,4.483,0v-6.077A2.244,2.244,0,0,0,93.241,210Z" transform="translate(-91 -210)" fill="#fff"/>
        </g>
      </g>
      <g id="Group_56" data-name="Group 56" transform="translate(31 12.072)">
        <g id="Group_55" data-name="Group 55">
          <path id="Path_46" data-name="Path 46" d="M32.494,243a3.707,3.707,0,0,1,.064-.629A2.237,2.237,0,0,0,31,244.49v3.088a2.237,2.237,0,0,0,1.558,2.124,3.707,3.707,0,0,1-.064-.629Z" transform="translate(-31 -242.366)" fill="#fff"/>
        </g>
      </g>
      <g id="Group_58" data-name="Group 58" transform="translate(39.966 10.46)">
        <g id="Group_57" data-name="Group 57" transform="translate(0)">
          <path id="Path_47" data-name="Path 47" d="M219.218,210a2.244,2.244,0,0,0-2.241,2.241v6.077a2.244,2.244,0,0,0,2.241,2.241,2.211,2.211,0,0,0,.642-.105,2.237,2.237,0,0,1-2.136,1.6h-2.379a2.241,2.241,0,1,0,0,1.494h2.379a3.74,3.74,0,0,0,3.736-3.736v-7.571A2.244,2.244,0,0,0,219.218,210Z" transform="translate(-211 -210)" fill="#fff"/>
        </g>
      </g>
      <g id="Group_60" data-name="Group 60" transform="translate(51.856 12.072)">
        <g id="Group_59" data-name="Group 59">
          <path id="Path_48" data-name="Path 48" d="M449.722,242.366a3.707,3.707,0,0,1,.064.629v6.077a3.706,3.706,0,0,1-.064.629,2.237,2.237,0,0,0,1.558-2.124V244.49A2.237,2.237,0,0,0,449.722,242.366Z" transform="translate(-449.722 -242.366)" fill="#fff"/>
        </g>
      </g>
      <g id="Group_62" data-name="Group 62" transform="translate(31)">
        <g id="Group_61" data-name="Group 61">
          <path id="Path_49" data-name="Path 49" d="M42.207,0A11.219,11.219,0,0,0,31,11.207v.019a3.7,3.7,0,0,1,1.528-.694,9.7,9.7,0,0,1,19.357,0,3.7,3.7,0,0,1,1.528.694v-.019A11.219,11.219,0,0,0,42.207,0Z" transform="translate(-31 0)" fill="#fff"/>
        </g>
      </g>
    </g>
  </g>
</svg>
