<svg xmlns="http://www.w3.org/2000/svg" xmlns:xlink="http://www.w3.org/1999/xlink" width="40" height="40" viewBox="0 0 40 40">
  <defs>
    <clipPath id="clip-visita">
      <rect width="40" height="40"/>
    </clipPath>
  </defs>
  <g id="visita" clip-path="url(#clip-visita)">
    <circle id="Ellipse_1" data-name="Ellipse 1" cx="20" cy="20" r="20" fill="#0273b2"/>
    <g id="house" transform="translate(8 8.593)">
      <g id="Group_64" data-name="Group 64" transform="translate(0 0.001)">
        <g id="Group_63" data-name="Group 63" transform="translate(0 0)">
          <path id="Path_50" data-name="Path 50" d="M22.907,10.25,19.379,6.722V2.068a.689.689,0,0,0-.689-.689H15.935a.689.689,0,0,0-.689.689v.522L13.263.606a2.065,2.065,0,0,0-2.92,0L.606,10.25a2.067,2.067,0,0,0,2.15,3.41v9.164a.689.689,0,0,0,.689.689H20.068a.689.689,0,0,0,.689-.689V13.66a2.067,2.067,0,0,0,2.15-3.41ZM16.624,2.756H18V5.345L16.624,3.967ZM13.868,22.135H9.736v-5.6h4.133Zm5.511,0H15.246V15.844a.689.689,0,0,0-.689-.689H9.047a.689.689,0,0,0-.689.689v6.291H4.133V12.573L11.8,4.987l7.58,7.58ZM21.933,12.2a.688.688,0,0,1-.974,0L12.289,3.529a.689.689,0,0,0-.972,0L2.554,12.2a.689.689,0,0,1-.976-.972l9.738-9.646a.688.688,0,0,1,.974,0l9.644,9.644A.689.689,0,0,1,21.933,12.2Z" transform="translate(0 -0.001)" fill="#fff"/>
        </g>
      </g>
      <g id="Group_66" data-name="Group 66" transform="translate(9.047 8.267)">
        <g id="Group_65" data-name="Group 65">
          <path id="Path_51" data-name="Path 51" d="M199.761,180.007a2.755,2.755,0,1,0,2.755,2.755A2.758,2.758,0,0,0,199.761,180.007Zm0,4.133a1.378,1.378,0,1,1,1.378-1.378A1.379,1.379,0,0,1,199.761,184.14Z" transform="translate(-197.006 -180.007)" fill="#fff"/>
        </g>
      </g>
    </g>
  </g>
</svg>
