<?xml version="1.0"?>
<svg xmlns="http://www.w3.org/2000/svg" height="512px" viewBox="0 -22 431.84943 431" width="512px"><g><path d="m382.074219 387.179688h-332.304688c-18.007812 0-34.113281-9.273438-43.082031-24.808594-8.933594-15.472656-8.914062-33.980469.042969-49.5l166.15625-287.660156c8.960937-15.519532 25.015625-24.785157 42.945312-24.785157 18.003907 0 34.128907 9.308594 43.136719 24.90625l166.144531 287.539063c8.964844 15.519531 8.980469 34.027344.050781 49.5-8.980468 15.539062-25.078124 24.808594-43.089843 24.808594zm-166.246094-373.097657c-12.992187 0-24.628906 6.714844-31.121094 17.960938l-166.15625 287.65625c-6.488281 11.25-6.503906 24.648437-.042969 35.847656 6.5 11.261719 18.1875 17.984375 31.257813 17.984375h332.304687c13.070313 0 24.757813-6.722656 31.257813-17.984375 6.464844-11.199219 6.449219-24.597656-.046875-35.847656l-166.148438-287.539063s0 0-.003906 0c-6.527344-11.320312-18.234375-18.078125-31.300781-18.078125zm0 0" data-original="#000000" class="active-path" data-old_color="#000000" fill="#0071FE"/><path d="m219.734375 339.394531c-15.308594 0-27.769531-12.453125-27.769531-27.769531s12.457031-27.773438 27.769531-27.773438 27.769531 12.457032 27.769531 27.773438-12.457031 27.769531-27.769531 27.769531zm0-41.886719c-7.78125 0-14.113281 6.332032-14.113281 14.121094 0 7.777344 6.328125 14.113282 14.113281 14.113282s14.117187-6.332032 14.117187-14.113282c0-7.789062-6.335937-14.121094-14.117187-14.121094zm0 0" data-original="#000000" class="active-path" data-old_color="#000000" fill="#0071FE"/><path d="m219.734375 262.59375c-11.074219 0-20.402344-8.652344-21.234375-19.695312l-8.460938-112.121094c-.625-8.242188 2.242188-16.441406 7.859376-22.496094 5.617187-6.058594 13.578124-9.53125 21.835937-9.53125 8.261719 0 16.222656 3.472656 21.839844 9.53125 5.617187 6.054688 8.480469 14.253906 7.859375 22.496094l-8.460938 112.121094c-.835937 11.042968-10.164062 19.695312-21.238281 19.695312zm0-150.1875c-4.539063 0-8.742187 1.832031-11.828125 5.160156-3.085938 3.335938-4.597656 7.660156-4.253906 12.1875l8.460937 112.121094c.300781 3.957031 3.644531 7.0625 7.617188 7.0625 3.976562 0 7.324219-3.105469 7.621093-7.0625l8.460938-112.121094c.34375-4.527344-1.167969-8.855468-4.253906-12.1875-3.082032-3.328125-7.285156-5.160156-11.824219-5.160156zm0 0" data-original="#000000" class="active-path" data-old_color="#000000" fill="#0071FE"/></g> </svg>
